<svg width="762" height="780" viewBox="0 0 762 780" fill="none" xmlns="http://www.w3.org/2000/svg">
<path fill-rule="evenodd" clip-rule="evenodd" d="M465.694 389.97L466.31 390.832L468.14 391.731L471.194 392.703L475.522 393.788L481.211 395.029L488.385 396.474L497.191 398.178L507.799 400.206L520.386 402.628L535.119 405.522L552.124 408.967L571.449 413.04L593.013 417.803L616.547 423.287L641.531 429.478L667.154 436.291L692.294 443.556L715.565 451.01L735.432 458.303L750.386 465.026L759.177 470.762L761.02 475.146L755.749 477.92L743.84 478.978L726.328 478.371L704.613 476.291L680.236 473.028L654.674 468.918L629.187 464.294L604.743 459.453L582.004 454.638L561.358 450.029L542.973 445.75L526.857 441.875L512.915 438.442L500.991 435.464L490.901 432.936L482.457 430.843L475.483 429.168L469.818 427.892L465.326 427.001L461.893 426.486L459.431 426.342L457.875 426.573L457.182 427.193L457.331 428.222L458.324 429.693L460.183 431.649L462.949 434.148L466.687 437.259L471.478 441.069L477.423 445.68L484.641 451.208L493.256 457.785L503.397 465.549L515.175 474.64L528.669 485.182L543.888 497.263L560.741 510.902L578.986 526.018L598.19 542.38L617.696 559.575L636.613 576.98L653.853 593.772L668.217 608.979L678.542 621.573L683.87 630.613L683.62 635.394L677.701 635.571L666.541 631.215L651.008 622.802L632.264 611.113L611.574 597.098L590.142 581.735L568.987 565.913L548.876 550.36L530.323 535.612L513.612 522.024L498.848 509.791L486.007 498.99L474.983 489.614L465.627 481.604L457.773 474.873L451.257 469.327L445.927 464.875L441.652 461.437L438.325 458.956L435.862 457.393L434.209 456.742L433.338 457.027L433.227 458.279L433.836 460.507L435.148 463.75L437.171 468.079L439.928 473.598L443.462 480.438L447.823 488.756L453.07 498.728L459.254 510.537L466.414 524.357L474.557 540.325L483.639 558.505L493.542 578.837L504.045 601.082L514.806 624.762L525.354 649.12L535.095 673.105L543.359 695.416L549.467 714.615L552.83 729.294L553.047 738.294L549.986 740.895L543.814 736.95L534.974 726.903L524.109 711.702L511.954 692.622L499.232 671.06L486.574 648.349L474.467 625.627L463.246 603.771L453.103 583.385L444.112 564.832L436.266 548.276L429.499 533.743L423.716 521.162L418.81 510.408L414.67 501.331L411.192 493.777L408.282 487.597L405.857 482.66L403.846 478.855L402.189 476.094L400.835 474.309L399.743 473.458L398.879 473.522L398.213 474.502L397.722 476.426L397.387 479.343L397.19 483.329L397.116 488.481L397.149 494.925L397.271 502.809L397.464 512.302L397.702 523.585L397.954 536.846L398.179 552.252L398.326 569.927L398.329 589.909L398.112 612.102L397.587 636.212L396.665 661.692L395.261 687.694L393.313 713.063L390.797 736.378L387.74 756.077L384.235 770.639L380.435 778.817L376.537 779.849L372.757 773.61L369.297 760.632L366.317 742.01L363.912 719.206L362.115 693.814L360.899 667.35L360.193 641.098L359.906 616.035L359.935 592.824L360.185 571.844L360.569 553.252L361.016 537.044L361.471 523.113L361.888 511.295L362.233 501.404L362.481 493.253L362.608 486.673L362.594 481.518L362.419 477.676L362.058 475.068L361.481 473.656L360.651 473.442L359.531 474.418L358.087 476.565L356.278 479.903L354.047 484.49L351.327 490.419L348.038 497.81L344.085 506.806L339.366 517.563L333.767 530.233L327.179 544.948L319.503 561.783L310.671 580.713L300.671 601.569L289.578 623.975L277.581 647.302L265.016 670.64L252.371 692.81L240.274 712.441L229.445 728.108L220.605 738.528L214.38 742.764L211.192 740.401L211.192 731.624L214.24 717.183L219.94 698.256L227.72 676.249L236.93 652.585L246.928 628.541L257.154 605.142L267.158 583.127L276.618 562.959L285.323 544.873L293.159 528.929L300.083 515.067L306.098 503.156L311.242 493.027L315.565 484.499L319.125 477.397L321.977 471.558L324.17 466.842L325.746 463.129L326.732 460.322L327.147 458.344L326.995 457.142L326.266 456.682L324.937 456.946L322.969 457.938L320.307 459.677L316.876 462.201L312.585 465.562L307.322 469.83L300.957 475.087L293.341 481.424L284.314 488.937L273.71 497.712L261.378 507.817L247.199 519.276L231.123 532.042L213.208 545.968L193.671 560.765L172.94 575.979L151.684 590.973L130.829 604.939L111.513 616.951L94.9937 626.064L82.4909 631.441L75.0064 632.494L73.1508 628.999L77.0318 621.146L86.2372 609.511L99.9168 594.959L116.937 578.496L136.063 561.13L156.119 543.745L176.109 527.041L195.268 511.504L213.073 497.421L229.213 484.92L243.55 474.005L256.067 464.603L266.829 456.595L275.944 449.841L283.54 444.198L289.744 439.533L294.671 435.726L298.416 432.675L301.048 430.298L302.605 428.532L303.09 427.334L302.473 426.679L300.744 426.529L297.893 426.85L293.866 427.625L288.575 428.849L281.898 430.53L273.684 432.681L263.758 435.318L251.932 438.456L238.017 442.1L221.852 446.241L203.335 450.84L182.473 455.82L159.437 461.051L134.628 466.34L108.727 471.43L82.7309 476L57.9325 479.692L35.8344 482.146L17.9928 483.052L5.80319 482.205L0.27348 479.548L1.8446 475.194L10.3103 469.41L24.8617 462.575L44.2418 455.122L66.9605 447.472L91.513 439.986L116.553 432.936L140.996 426.501L164.058 420.77L185.241 415.765L204.281 411.458L221.099 407.791L235.738 404.69L248.321 402.077L259.007 399.875L267.973 398.013L275.388 396.43L281.409 395.068L286.173 393.88L289.792 392.825L292.355 391.866L293.926 390.97L294.544 390.107L294.225 389.248L292.961 388.366L290.72 387.43L287.445 386.409L283.057 385.268L277.45 383.967L270.495 382.459L262.042 380.693L251.922 378.607L239.962 376.133L225.994 373.196L209.879 369.717L191.545 365.621L171.026 360.843L148.521 355.344L124.447 349.127L99.4936 342.258L74.6509 334.886L51.1894 327.253L30.5794 319.693L14.3377 312.614L3.82043 306.45L0 301.605L3.28532 298.387L13.4388 296.962L29.6174 297.325L50.5255 299.316L74.6333 302.651L100.4 306.982L126.455 311.943L151.701 317.201L175.357 322.474L196.94 327.551L216.211 332.281L233.119 336.574L247.735 340.379L260.207 343.678L270.717 346.473L279.456 348.777L286.605 350.606L292.323 351.975L296.741 352.893L299.96 353.359L302.042 353.362L303.015 352.873L302.877 351.851L301.659 350.27L299.372 348.093L295.988 345.265L291.447 341.708L285.662 337.329L278.523 332.011L269.906 325.626L259.681 318.033L247.732 309.09L233.978 298.667L218.404 286.675L201.105 273.089L182.332 257.993L162.535 241.617L142.402 224.384L122.859 206.924L105.034 190.068L90.159 174.795L79.4191 162.127L73.774 152.991L73.7886 148.067L79.5238 147.676L90.5213 151.724L105.887 159.729L124.451 170.918L144.947 184.365L166.187 199.126L187.171 214.348L207.145 229.336L225.609 243.578L242.284 256.735L257.066 268.62L269.976 279.156L281.115 288.35L290.627 296.255L298.674 302.957L305.421 308.547L311.02 313.121L315.607 316.763L319.301 319.547L322.2 321.531L324.382 322.758L325.91 323.253L326.826 323.024L327.16 322.061L326.926 320.336L326.123 317.8L324.738 314.385L322.745 310L320.107 304.534L316.779 297.85L312.705 289.795L307.829 280.196L302.096 268.872L295.464 255.648L287.917 240.378L279.48 222.974L270.243 203.454L260.382 181.989L250.184 158.964L240.058 135.028L230.53 111.115L222.223 88.4295L215.793 68.3644L211.847 52.3517L210.847 41.6649L213.022 37.2101L218.314 39.3613L226.38 47.8905L236.652 62.0128L248.425 80.5334L260.969 102.05L273.62 125.155L285.842 148.597L297.25 171.378L307.611 192.78L316.817 212.351L324.856 229.861L331.781 245.247L337.683 258.557L342.671 269.907L346.856 279.446L350.345 287.332L353.237 293.712L355.616 298.716L357.553 302.444L359.108 304.966L360.327 306.315L361.246 306.484L361.899 305.451L362.325 303.226L362.557 299.784L362.62 295.059L362.535 288.947L362.324 281.313L362.007 271.996L361.609 260.812L361.163 247.574L360.707 232.106L360.296 214.28L359.995 194.053L359.885 171.523L360.061 146.993L360.623 121.029L361.668 94.5064L363.274 68.6172L365.486 44.816L368.29 24.6926L371.612 9.77614L375.31 1.30237L379.194 0L383.048 5.95575L386.666 18.6004L389.878 36.8199L392.573 59.1552L394.702 84.0338L396.274 109.974L397.341 135.727L397.982 160.347L398.288 183.193L398.346 203.898L398.237 222.309L398.031 238.428L397.782 252.355L397.536 264.248L397.326 274.291L397.179 282.668L397.116 289.554L397.154 295.103L397.31 299.448L397.6 302.696L398.039 304.93L398.646 306.207L399.445 306.561L400.461 306.002L401.727 304.519L403.283 302.074L405.175 298.611L407.461 294.046L410.208 288.275L413.495 281.174L417.414 272.599L422.064 262.396L427.555 250.412L433.997 236.511L441.491 220.603L450.113 202.675L459.893 182.845L470.785 161.404L482.638 138.876L495.167 116.049L507.931 93.9834L520.342 73.9608L531.699 57.3761L541.26 45.5654L548.341 39.6016L552.426 40.1047L553.253 47.1188L550.86 60.0976L545.57 78.0015L537.921 99.4799L528.575 123.082L518.215 147.449L507.465 171.441L496.836 194.208L486.713 215.186L477.352 234.065L468.902 250.736L461.427 265.228L454.935 277.66L449.396 288.197L444.759 297.022L440.967 304.315L437.967 310.239L435.715 314.934L434.178 318.514L433.344 321.059L433.222 322.62L433.847 323.211L435.25 322.854L437.45 321.582L440.494 319.395L444.456 316.268L449.437 312.146L455.56 306.958L462.97 300.615L471.829 293.023L482.305 284.09L494.553 273.747L508.697 261.966L524.792 248.795L542.779 234.386L562.438 219.041L583.332 203.234L604.774 187.635L625.824 173.087L645.326 160.549L662.017 150.997L674.682 145.281L682.339 143.985L684.41 147.318L680.818 155.063L671.996 166.619L658.798 181.103L642.343 197.501L623.834 214.809L604.409 232.149L585.025 248.83L566.418 264.376L549.087 278.501L533.331 291.08L519.285 302.105L506.966 311.646L496.315 319.819L487.227 326.758L479.579 332.606L473.241 337.495L468.094 341.548L464.031 344.872L460.963 347.558L458.821 349.68L457.555 351.3L457.138 352.466L457.562 353.213L458.84 353.566L461.007 353.541L464.122 353.144L468.266 352.374L473.543 351.222L480.084 349.676L488.041 347.718L497.587 345.33L508.906 342.496L522.187 339.208L537.596 335.472L555.253 331.315L575.189 326.8L597.291 322.034L621.25 317.178L646.495 312.455L672.157 308.146L697.063 304.576L719.795 302.085L738.809 300.983L752.636 301.497L760.103 303.728L760.539 307.62L753.904 312.961L740.795 319.414L722.338 326.571L699.981 334.015L675.276 341.374L649.671 348.354L624.38 354.756L600.315 360.47L578.083 365.461L558.028 369.748L540.284 373.385L524.839 376.446L511.585 379.01L500.366 381.155L491.005 382.955L483.329 384.476L477.181 385.776L472.431 386.906L468.979 387.91L466.762 388.828L465.757 389.698L465.694 389.97Z" fill="url(#paint0_radial_216_337)"/>
<path fill-rule="evenodd" clip-rule="evenodd" d="M447.209 390.08L447.688 390.751L449.112 391.45L451.487 392.206L454.854 393.05L459.28 394.016L464.86 395.14L471.71 396.466L479.962 398.044L489.754 399.928L501.215 402.179L514.443 404.86L529.476 408.029L546.251 411.734L564.558 416.001L583.993 420.818L603.925 426.118L623.482 431.771L641.585 437.57L657.039 443.244L668.672 448.475L675.51 452.938L676.944 456.348L672.844 458.506L663.58 459.329L649.957 458.857L633.065 457.239L614.102 454.701L594.217 451.503L574.391 447.905L555.375 444.139L537.687 440.392L521.626 436.807L507.324 433.477L494.788 430.463L483.942 427.792L474.666 425.475L466.817 423.508L460.249 421.88L454.824 420.576L450.417 419.584L446.922 418.891L444.252 418.49L442.337 418.378L441.126 418.558L440.587 419.04L440.703 419.84L441.476 420.985L442.922 422.507L445.074 424.451L447.981 426.871L451.708 429.836L456.333 433.423L461.948 437.724L468.65 442.841L476.538 448.881L485.701 455.954L496.197 464.156L508.036 473.555L521.146 484.167L535.339 495.928L550.278 508.657L565.452 522.035L580.168 535.576L593.578 548.642L604.752 560.472L612.784 570.271L616.928 577.304L616.734 581.024L612.13 581.161L603.449 577.773L591.366 571.227L576.784 562.133L560.689 551.229L544.018 539.276L527.561 526.966L511.916 514.866L497.484 503.392L484.485 492.82L472.999 483.303L463.01 474.899L454.435 467.605L447.157 461.373L441.047 456.136L435.978 451.821L431.832 448.357L428.506 445.682L425.918 443.752L424.002 442.536L422.717 442.03L422.039 442.251L421.952 443.225L422.426 444.959L423.447 447.482L425.02 450.85L427.165 455.143L429.914 460.465L433.307 466.937L437.388 474.695L442.199 483.883L447.769 494.635L454.103 507.059L461.169 521.203L468.872 537.022L477.042 554.328L485.414 572.752L493.618 591.703L501.196 610.364L507.625 627.722L512.376 642.659L514.992 654.08L515.161 661.082L512.78 663.105L507.979 660.036L501.102 652.219L492.65 640.393L483.194 625.549L473.298 608.773L463.451 591.103L454.033 573.425L445.305 556.42L437.414 540.56L430.42 526.125L424.316 513.245L419.052 501.937L414.554 492.149L410.738 483.782L407.517 476.721L404.812 470.843L402.548 466.035L400.662 462.194L399.097 459.234L397.808 457.086L396.755 455.697L395.906 455.035L395.233 455.084L394.715 455.847L394.333 457.344L394.073 459.614L393.919 462.714L393.862 466.723L393.887 471.737L393.982 477.871L394.132 485.256L394.317 494.035L394.513 504.352L394.689 516.338L394.803 530.089L394.805 545.636L394.636 562.902L394.228 581.66L393.511 601.484L392.419 621.714L390.904 641.451L388.946 659.591L386.568 674.917L383.842 686.247L380.885 692.609L377.853 693.412L374.913 688.558L372.221 678.461L369.903 663.973L368.032 646.231L366.635 626.476L365.688 605.886L365.139 585.461L364.916 565.962L364.938 547.904L365.132 531.581L365.431 517.116L365.779 504.506L366.133 493.667L366.457 484.473L366.726 476.777L366.919 470.436L367.018 465.316L367.007 461.306L366.871 458.317L366.59 456.288L366.141 455.189L365.495 455.022L364.624 455.782L363.501 457.452L362.093 460.049L360.358 463.618L358.242 468.231L355.683 473.981L352.609 480.98L348.938 489.349L344.582 499.207L339.457 510.656L333.486 523.753L326.615 538.481L318.837 554.707L310.207 572.14L300.875 590.289L291.1 608.446L281.264 625.694L271.854 640.968L263.43 653.157L256.553 661.263L251.711 664.559L249.231 662.721L249.231 655.892L251.602 644.657L256.036 629.932L262.088 612.81L269.252 594.399L277.03 575.692L284.984 557.487L292.767 540.359L300.126 524.668L306.897 510.597L312.993 498.192L318.379 487.407L323.059 478.14L327.06 470.26L330.423 463.625L333.192 458.099L335.41 453.557L337.117 449.888L338.342 446.999L339.11 444.815L339.432 443.276L339.314 442.341L338.747 441.983L337.714 442.188L336.183 442.96L334.111 444.313L331.442 446.276L328.105 448.892L324.011 452.212L319.059 456.302L313.135 461.233L306.112 467.077L297.864 473.905L288.27 481.767L277.241 490.682L264.735 500.615L250.798 511.448L235.601 522.961L219.474 534.798L202.939 546.464L186.716 557.329L171.69 566.675L158.839 573.765L149.113 577.948L143.291 578.767L141.848 576.048L144.867 569.938L152.028 560.887L162.669 549.564L175.909 536.756L190.787 523.245L206.389 509.72L221.94 496.724L236.844 484.635L250.694 473.679L263.249 463.952L274.402 455.46L284.139 448.146L292.511 441.915L299.602 436.66L305.511 432.27L310.336 428.641L314.169 425.678L317.082 423.305L319.13 421.455L320.341 420.081L320.719 419.149L320.238 418.64L318.894 418.523L316.675 418.773L313.543 419.376L309.427 420.329L304.233 421.636L297.843 423.31L290.122 425.361L280.922 427.803L270.098 430.638L257.523 433.86L243.118 437.438L226.89 441.312L208.97 445.382L189.671 449.497L169.522 453.457L149.3 457.013L130.009 459.885L112.819 461.795L98.9401 462.5L89.4577 461.84L85.1561 459.773L86.3783 456.386L92.9638 451.885L104.283 446.568L119.359 440.769L137.032 434.817L156.132 428.993L175.61 423.508L194.625 418.501L212.565 414.043L229.043 410.149L243.854 406.798L256.937 403.944L268.325 401.532L278.113 399.499L286.426 397.786L293.4 396.338L299.169 395.105L303.853 394.046L307.558 393.122L310.374 392.301L312.368 391.555L313.59 390.858L314.071 390.186L313.823 389.518L312.839 388.832L311.096 388.104L308.548 387.309L305.135 386.421L300.773 385.409L295.363 384.236L288.787 382.862L280.915 381.239L271.611 379.314L260.745 377.029L248.209 374.323L233.947 371.136L217.986 367.419L200.479 363.14L181.751 358.303L162.34 352.959L143.015 347.223L124.764 341.285L108.731 335.403L96.0967 329.896L87.9153 325.1L84.9434 321.33L87.499 318.827L95.3975 317.718L107.983 318.001L124.247 319.549L143.001 322.144L163.045 325.514L183.313 329.374L202.952 333.464L221.355 337.567L238.144 341.516L253.135 345.197L266.287 348.537L277.657 351.497L287.359 354.064L295.535 356.239L302.333 358.031L307.895 359.454L312.342 360.519L315.78 361.233L318.283 361.596L319.903 361.598L320.66 361.218L320.553 360.422L319.606 359.192L317.826 357.499L315.194 355.298L311.661 352.531L307.161 349.124L301.607 344.987L294.904 340.019L286.95 334.112L277.656 327.153L266.956 319.045L254.841 309.715L241.384 299.145L226.78 287.399L211.38 274.659L195.719 261.251L180.516 247.667L166.65 234.552L155.078 222.67L146.724 212.814L142.332 205.706L142.344 201.875L146.805 201.571L155.36 204.721L167.314 210.948L181.754 219.653L197.698 230.116L214.221 241.6L230.544 253.443L246.082 265.104L260.446 276.184L273.417 286.421L284.916 295.667L294.959 303.865L303.624 311.017L311.023 317.168L317.283 322.382L322.532 326.732L326.887 330.29L330.456 333.124L333.329 335.29L335.584 336.833L337.282 337.788L338.47 338.173L339.183 337.995L339.443 337.246L339.26 335.903L338.636 333.93L337.558 331.273L336.008 327.862L333.956 323.609L331.367 318.409L328.198 312.142L324.405 304.674L319.945 295.863L314.786 285.575L308.915 273.695L302.352 260.154L295.166 244.967L287.496 228.267L279.563 210.353L271.685 191.73L264.274 173.126L257.812 155.476L252.809 139.865L249.74 127.407L248.962 119.093L250.654 115.627L254.77 117.3L261.046 123.936L269.036 134.924L278.194 149.333L287.952 166.073L297.794 184.049L307.301 202.288L316.175 220.012L324.235 236.663L331.397 251.889L337.65 265.512L343.038 277.483L347.629 287.838L351.508 296.669L354.764 304.09L357.479 310.226L359.728 315.19L361.579 319.083L363.085 321.983L364.295 323.945L365.243 324.995L365.959 325.126L366.466 324.323L366.798 322.592L366.978 319.914L367.027 316.237L366.961 311.482L366.797 305.543L366.55 298.294L366.241 289.593L365.893 279.293L365.539 267.259L365.219 253.39L364.985 237.653L364.9 220.124L365.036 201.04L365.473 180.839L366.286 160.204L367.536 140.062L369.256 121.544L371.438 105.888L374.022 94.2825L376.898 87.6898L379.92 86.6765L382.918 91.3102L385.733 101.148L388.232 115.323L390.328 132.7L391.984 152.056L393.207 172.238L394.037 192.274L394.536 211.429L394.773 229.204L394.818 245.313L394.734 259.637L394.573 272.177L394.38 283.013L394.188 292.266L394.025 300.079L393.91 306.597L393.861 311.954L393.891 316.272L394.013 319.652L394.238 322.179L394.579 323.917L395.052 324.911L395.673 325.186L396.464 324.752L397.449 323.597L398.659 321.696L400.131 319.001L401.909 315.449L404.046 310.959L406.603 305.434L409.651 298.763L413.269 290.825L417.54 281.501L422.552 270.686L428.381 258.309L435.088 244.361L442.696 228.933L451.169 212.251L460.39 194.724L470.136 176.965L480.065 159.797L489.72 144.219L498.555 131.316L505.992 122.127L511.501 117.487L514.678 117.879L515.321 123.336L513.46 133.433L509.344 147.363L503.394 164.074L496.124 182.437L488.065 201.394L479.702 220.061L471.434 237.774L463.56 254.094L456.278 268.783L449.704 281.753L443.89 293.028L438.84 302.7L434.53 310.898L430.923 317.765L427.974 323.439L425.64 328.048L423.888 331.701L422.692 334.486L422.044 336.466L421.949 337.68L422.435 338.14L423.526 337.862L425.237 336.872L427.605 335.172L430.688 332.738L434.562 329.532L439.325 325.495L445.09 320.56L451.982 314.653L460.13 307.703L469.658 299.656L480.661 290.491L493.181 280.243L507.174 269.033L522.466 257.094L538.72 244.796L555.4 232.66L571.775 221.341L586.945 211.587L599.929 204.155L609.781 199.707L615.738 198.699L617.349 201.292L614.554 207.318L607.692 216.309L597.425 227.578L584.625 240.336L570.227 253.802L555.116 267.292L540.037 280.271L525.562 292.365L512.081 303.355L499.824 313.142L488.898 321.72L479.315 329.143L471.029 335.501L463.96 340.9L458.01 345.449L453.079 349.253L449.076 352.407L445.915 354.993L443.528 357.082L441.862 358.733L440.878 359.994L440.553 360.901L440.883 361.482L441.877 361.757L443.563 361.738L445.986 361.429L449.209 360.829L453.315 359.933L458.403 358.73L464.593 357.207L472.018 355.349L480.824 353.144L491.155 350.586L503.142 347.679L516.877 344.445L532.385 340.933L549.579 337.225L568.216 333.447L587.855 329.772L607.817 326.419L627.192 323.642L644.875 321.704L659.666 320.846L670.422 321.246L676.231 322.982L676.57 326.01L671.408 330.166L661.211 335.186L646.853 340.755L629.462 346.546L610.243 352.271L590.325 357.702L570.651 362.682L551.931 367.128L534.637 371.011L519.036 374.347L505.233 377.177L493.218 379.558L482.908 381.552L474.18 383.221L466.898 384.622L460.927 385.806L456.145 386.817L452.449 387.696L449.764 388.477L448.039 389.191L447.258 389.868L447.209 390.08Z" fill="url(#paint1_radial_216_337)"/>
<path fill-rule="evenodd" clip-rule="evenodd" d="M427.856 390.07L428.199 390.549L429.216 391.048L430.913 391.589L433.319 392.192L436.481 392.881L440.468 393.684L445.363 394.631L451.259 395.758L458.255 397.104L466.443 398.712L475.895 400.627L486.636 402.89L498.621 405.537L511.702 408.585L525.588 412.025L539.83 415.811L553.802 419.849L566.737 423.991L577.779 428.044L586.091 431.78L590.976 434.968L592.001 437.404L589.071 438.946L582.452 439.533L572.719 439.196L560.649 438.04L547.101 436.227L532.893 433.943L518.727 431.373L505.141 428.683L492.502 426.007L481.027 423.446L470.808 421.068L461.851 418.915L454.102 417.007L447.475 415.352L441.866 413.947L437.173 412.784L433.297 411.853L430.148 411.144L427.652 410.649L425.744 410.362L424.375 410.282L423.51 410.411L423.125 410.755L423.208 411.327L423.76 412.145L424.793 413.232L426.331 414.62L428.408 416.349L431.071 418.467L434.376 421.029L438.387 424.101L443.176 427.756L448.812 432.071L455.358 437.123L462.858 442.981L471.317 449.695L480.684 457.275L490.825 465.675L501.499 474.768L512.341 484.323L522.855 493.996L532.437 503.328L540.42 511.779L546.159 518.777L549.12 523.801L548.981 526.458L545.692 526.556L539.489 524.136L530.856 519.461L520.437 512.965L508.938 505.176L497.026 496.638L485.267 487.846L474.09 479.202L463.778 471.007L454.49 463.455L446.284 456.657L439.146 450.655L433.019 445.444L427.819 440.993L423.454 437.253L419.832 434.171L416.87 431.696L414.494 429.786L412.644 428.407L411.276 427.539L410.357 427.177L409.873 427.335L409.811 428.031L410.149 429.269L410.879 431.071L412.003 433.477L413.535 436.544L415.499 440.345L417.924 444.967L420.84 450.509L424.277 457.072L428.256 464.752L432.782 473.626L437.831 483.729L443.335 495.028L449.172 507.39L455.153 520.55L461.016 534.086L466.43 547.415L471.023 559.814L474.418 570.483L476.287 578.641L476.408 583.642L474.706 585.088L471.276 582.895L466.363 577.312L460.324 568.865L453.568 558.262L446.497 546.279L439.461 533.658L432.732 521.03L426.496 508.884L420.858 497.556L415.861 487.245L411.5 478.045L407.739 469.968L404.525 462.976L401.798 457L399.497 451.956L397.564 447.758L395.946 444.323L394.599 441.58L393.481 439.466L392.56 437.931L391.807 436.939L391.2 436.466L390.72 436.501L390.35 437.046L390.077 438.115L389.891 439.737L389.781 441.951L389.74 444.815L389.758 448.396L389.826 452.777L389.933 458.052L390.066 464.323L390.206 471.692L390.331 480.254L390.412 490.076L390.414 501.181L390.293 513.514L390.002 526.913L389.489 541.073L388.709 555.523L387.627 569.621L386.228 582.578L384.529 593.525L382.581 601.618L380.468 606.162L378.302 606.736L376.201 603.268L374.278 596.056L372.622 585.707L371.285 573.035L370.286 558.924L369.61 544.217L369.218 529.628L369.058 515.7L369.075 502.801L369.213 491.142L369.427 480.81L369.675 471.803L369.928 464.061L370.16 457.493L370.352 451.996L370.489 447.467L370.56 443.81L370.553 440.945L370.455 438.81L370.255 437.361L369.934 436.576L369.472 436.457L368.85 437L368.048 438.193L367.042 440.048L365.802 442.597L364.29 445.892L362.462 449.999L360.265 454.999L357.642 460.976L354.53 468.018L350.869 476.195L346.602 485.55L341.693 496.071L336.135 507.661L329.969 520.112L323.301 533.076L316.318 546.045L309.289 558.366L302.566 569.275L296.547 577.982L291.634 583.772L288.174 586.126L286.402 584.813L286.402 579.935L288.096 571.91L291.264 561.392L295.588 549.162L300.707 536.012L306.264 522.65L311.948 509.646L317.508 497.412L322.766 486.204L327.605 476.153L331.96 467.293L335.808 459.589L339.152 452.97L342.01 447.341L344.413 442.602L346.392 438.655L347.977 435.41L349.196 432.79L350.072 430.726L350.62 429.166L350.851 428.067L350.766 427.399L350.361 427.143L349.623 427.29L348.529 427.841L347.049 428.808L345.142 430.21L342.757 432.078L339.832 434.45L336.294 437.371L332.061 440.893L327.043 445.068L321.15 449.945L314.296 455.56L306.415 461.928L297.479 469.023L287.522 476.762L276.664 484.985L265.141 493.44L253.327 501.772L241.735 509.533L231 516.209L221.818 521.273L214.869 524.261L210.709 524.846L209.677 522.904L211.834 518.54L216.951 512.074L224.554 503.987L234.014 494.839L244.644 485.187L255.792 475.527L266.903 466.244L277.551 457.609L287.447 449.783L296.418 442.836L304.387 436.77L311.344 431.545L317.326 427.095L322.392 423.341L326.614 420.206L330.062 417.613L332.8 415.497L334.882 413.802L336.344 412.481L337.21 411.499L337.48 410.834L337.136 410.47L336.176 410.387L334.591 410.565L332.353 410.995L329.412 411.676L325.701 412.61L321.135 413.805L315.619 415.271L309.046 417.014L301.311 419.04L292.327 421.341L282.035 423.897L270.439 426.664L257.636 429.571L243.847 432.511L229.451 435.339L215.002 437.879L201.219 439.931L188.937 441.295L179.02 441.798L172.245 441.327L169.172 439.851L170.045 437.431L174.75 434.216L182.838 430.418L193.61 426.276L206.237 422.025L219.883 417.865L233.801 413.947L247.386 410.371L260.205 407.186L271.978 404.404L282.561 402.011L291.908 399.973L300.045 398.25L307.038 396.798L312.978 395.574L317.961 394.54L322.082 393.659L325.429 392.903L328.077 392.243L330.089 391.656L331.513 391.123L332.386 390.625L332.73 390.146L332.553 389.668L331.85 389.178L330.604 388.658L328.784 388.091L326.345 387.456L323.229 386.733L319.363 385.896L314.665 384.914L309.04 383.755L302.393 382.38L294.629 380.748L285.672 378.815L275.482 376.538L264.077 373.883L251.569 370.827L238.188 367.372L224.319 363.555L210.511 359.458L197.471 355.216L186.016 351.015L176.989 347.081L171.143 343.656L169.02 340.963L170.846 339.175L176.489 338.382L185.481 338.584L197.102 339.691L210.501 341.544L224.823 343.951L239.304 346.708L253.336 349.63L266.485 352.56L278.48 355.382L289.192 358.011L298.589 360.396L306.713 362.51L313.645 364.344L319.486 365.897L324.344 367.178L328.317 368.194L331.495 368.955L333.951 369.465L335.74 369.724L336.897 369.726L337.438 369.454L337.361 368.886L336.684 368.007L335.413 366.797L333.532 365.226L331.008 363.249L327.793 360.815L323.825 357.86L319.035 354.312L313.353 350.092L306.711 345.122L299.067 339.33L290.41 332.666L280.796 325.116L270.361 316.726L259.358 307.626L248.168 298.049L237.306 288.346L227.398 278.979L219.131 270.491L213.161 263.451L210.024 258.374L210.032 255.638L213.22 255.421L219.332 257.67L227.873 262.118L238.19 268.337L249.582 275.81L261.388 284.013L273.051 292.472L284.152 300.801L294.415 308.716L303.683 316.028L311.899 322.632L319.075 328.488L325.266 333.597L330.552 337.99L335.025 341.714L338.775 344.821L341.887 347.363L344.437 349.387L346.49 350.934L348.101 352.036L349.314 352.718L350.163 352.993L350.672 352.866L350.858 352.331L350.728 351.372L350.281 349.963L349.511 348.065L348.404 345.628L346.938 342.59L345.088 338.876L342.824 334.4L340.114 329.065L336.927 322.772L333.241 315.423L329.046 306.937L324.357 297.266L319.223 286.418L313.742 274.489L308.074 261.694L302.446 248.392L297.15 235.102L292.533 222.496L288.959 211.345L286.766 202.446L286.21 196.507L287.419 194.032L290.36 195.227L294.844 199.967L300.553 207.815L307.096 218.108L314.068 230.065L321.1 242.905L327.893 255.933L334.234 268.592L339.992 280.486L345.109 291.362L349.577 301.093L353.426 309.643L356.707 317.04L359.479 323.347L361.805 328.649L363.745 333.031L365.352 336.577L366.674 339.357L367.751 341.429L368.615 342.831L369.292 343.581L369.803 343.674L370.166 343.1L370.403 341.864L370.532 339.951L370.567 337.325L370.52 333.928L370.402 329.686L370.226 324.508L370.005 318.293L369.757 310.936L369.504 302.341L369.275 292.434L369.108 281.193L369.047 268.673L369.145 255.041L369.457 240.612L370.037 225.873L370.931 211.485L372.16 198.258L373.718 187.075L375.564 178.786L377.62 174.077L379.779 173.353L381.921 176.663L383.932 183.69L385.717 193.815L387.215 206.227L388.398 220.053L389.272 234.468L389.865 248.78L390.222 262.462L390.391 275.158L390.424 286.665L390.363 296.896L390.249 305.854L390.11 313.593L389.973 320.203L389.857 325.784L389.775 330.439L389.74 334.266L389.761 337.349L389.848 339.764L390.009 341.569L390.253 342.811L390.591 343.52L391.034 343.717L391.599 343.407L392.303 342.582L393.168 341.224L394.219 339.299L395.49 336.762L397.017 333.555L398.844 329.609L401.022 324.843L403.606 319.173L406.658 312.514L410.239 304.789L414.404 295.948L419.196 285.985L424.632 274.965L430.686 263.049L437.274 250.53L444.237 237.845L451.332 225.582L458.23 214.455L464.543 205.238L469.857 198.675L473.792 195.361L476.063 195.64L476.522 199.538L475.192 206.751L472.252 216.701L468.001 228.637L462.806 241.753L457.048 255.294L451.073 268.628L445.165 281.28L439.539 292.937L434.336 303.429L429.639 312.693L425.485 320.747L421.877 327.656L418.798 333.512L416.22 338.416L414.113 342.469L412.446 345.761L411.193 348.37L410.339 350.36L409.876 351.774L409.808 352.641L410.156 352.97L410.935 352.771L412.158 352.064L413.85 350.849L416.052 349.111L418.821 346.821L422.224 343.938L426.343 340.413L431.266 336.193L437.089 331.229L443.896 325.481L451.758 318.934L460.704 311.615L470.701 303.608L481.627 295.08L493.24 286.296L505.158 277.627L516.858 269.542L527.697 262.575L536.974 257.266L544.013 254.089L548.27 253.369L549.421 255.221L547.424 259.526L542.521 265.947L535.185 273.997L526.039 283.11L515.752 292.728L504.955 302.364L494.182 311.635L483.839 320.274L474.207 328.123L465.45 335.114L457.643 341.241L450.796 346.543L444.876 351.085L439.825 354.941L435.573 358.191L432.051 360.908L429.19 363.16L426.932 365.008L425.227 366.5L424.036 367.679L423.333 368.58L423.101 369.228L423.336 369.643L424.047 369.839L425.251 369.825L426.983 369.604L429.286 369.176L432.219 368.536L435.855 367.677L440.277 366.589L445.583 365.262L451.874 363.687L459.256 361.86L467.82 359.783L477.634 357.473L488.714 354.965L500.999 352.316L514.316 349.617L528.347 346.993L542.61 344.598L556.453 342.614L569.088 341.23L579.656 340.617L587.341 340.903L591.491 342.143L591.734 344.306L588.046 347.274L580.76 350.86L570.501 354.837L558.075 358.974L544.344 363.064L530.112 366.942L516.055 370.5L502.68 373.675L490.323 376.449L479.176 378.832L469.314 380.853L460.73 382.554L453.363 383.979L447.127 385.171L441.924 386.171L437.658 387.017L434.241 387.739L431.601 388.367L429.682 388.925L428.45 389.435L427.891 389.918L427.856 390.07Z" fill="url(#paint2_radial_216_337)"/>
<path fill-rule="evenodd" clip-rule="evenodd" d="M408.504 390.168L408.709 390.455L409.32 390.755L410.339 391.08L411.783 391.442L413.682 391.856L416.076 392.338L419.015 392.907L422.555 393.584L426.755 394.392L431.672 395.357L437.347 396.507L443.796 397.866L450.992 399.456L458.845 401.286L467.183 403.352L475.734 405.626L484.123 408.05L491.889 410.538L498.519 412.971L503.509 415.215L506.443 417.129L507.058 418.592L505.299 419.518L501.325 419.871L495.481 419.668L488.234 418.974L480.099 417.885L471.569 416.514L463.064 414.97L454.906 413.355L447.318 411.748L440.428 410.21L434.293 408.782L428.915 407.489L424.262 406.344L420.283 405.35L416.916 404.506L414.098 403.807L411.771 403.248L409.88 402.823L408.381 402.525L407.235 402.353L406.414 402.305L405.894 402.383L405.663 402.589L405.713 402.933L406.044 403.424L406.665 404.076L407.588 404.91L408.835 405.949L410.434 407.22L412.418 408.759L414.827 410.603L417.702 412.798L421.086 415.389L425.016 418.423L429.519 421.941L434.598 425.973L440.222 430.524L446.311 435.569L452.72 441.029L459.229 446.767L465.542 452.575L471.295 458.179L476.088 463.254L479.534 467.456L481.312 470.473L481.228 472.069L479.253 472.128L475.529 470.674L470.346 467.867L464.09 463.966L457.186 459.289L450.034 454.162L442.974 448.882L436.263 443.692L430.071 438.77L424.495 434.236L419.568 430.153L415.282 426.549L411.604 423.42L408.482 420.747L405.861 418.501L403.686 416.65L401.907 415.164L400.481 414.017L399.37 413.189L398.549 412.668L397.997 412.45L397.706 412.545L397.669 412.963L397.872 413.707L398.31 414.789L398.985 416.234L399.905 418.075L401.085 420.358L402.54 423.134L404.291 426.461L406.355 430.402L408.744 435.014L411.462 440.343L414.492 446.41L417.797 453.195L421.302 460.618L424.893 468.521L428.413 476.649L431.664 484.653L434.422 492.099L436.46 498.506L437.582 503.404L437.655 506.408L436.633 507.276L434.573 505.959L431.624 502.607L427.998 497.534L423.941 491.167L419.696 483.971L415.472 476.392L411.432 468.809L407.687 461.516L404.302 454.713L401.302 448.521L398.683 442.996L396.425 438.146L394.495 433.948L392.858 430.359L391.477 427.33L390.316 424.809L389.345 422.747L388.536 421.1L387.864 419.83L387.311 418.908L386.86 418.313L386.495 418.029L386.207 418.05L385.984 418.377L385.821 419.019L385.709 419.993L385.643 421.323L385.618 423.042L385.629 425.193L385.67 427.824L385.734 430.991L385.814 434.757L385.898 439.182L385.973 444.323L386.022 450.221L386.023 456.89L385.951 464.296L385.776 472.342L385.468 480.845L385 489.522L384.35 497.988L383.51 505.769L382.49 512.342L381.32 517.202L380.052 519.931L378.751 520.275L377.49 518.193L376.335 513.862L375.34 507.648L374.538 500.038L373.938 491.564L373.532 482.733L373.297 473.972L373.201 465.608L373.211 457.863L373.294 450.861L373.422 444.657L373.572 439.248L373.723 434.599L373.862 430.655L373.978 427.355L374.06 424.635L374.103 422.439L374.098 420.718L374.04 419.436L373.919 418.566L373.727 418.095L373.45 418.023L373.076 418.349L372.594 419.065L371.99 420.179L371.246 421.71L370.338 423.689L369.24 426.155L367.922 429.157L366.346 432.747L364.478 436.975L362.28 441.886L359.718 447.504L356.771 453.821L353.434 460.781L349.732 468.258L345.728 476.043L341.535 483.831L337.315 491.229L333.278 497.78L329.664 503.009L326.715 506.486L324.637 507.899L323.573 507.111L323.573 504.182L324.59 499.363L326.493 493.047L329.089 485.703L332.162 477.806L335.499 469.782L338.911 461.973L342.25 454.626L345.407 447.896L348.312 441.861L350.927 436.54L353.237 431.914L355.245 427.939L356.961 424.559L358.404 421.713L359.592 419.343L360.544 417.395L361.276 415.821L361.801 414.582L362.13 413.645L362.269 412.985L362.218 412.584L361.975 412.43L361.532 412.518L360.875 412.849L359.986 413.43L358.841 414.272L357.409 415.394L355.653 416.818L353.529 418.572L350.987 420.687L347.975 423.194L344.436 426.123L340.321 429.495L335.589 433.319L330.224 437.579L324.246 442.226L317.726 447.164L310.808 452.241L303.715 457.245L296.755 461.905L290.309 465.914L284.796 468.955L280.624 470.75L278.126 471.101L277.507 469.935L278.802 467.314L281.874 463.431L286.439 458.575L292.119 453.081L298.502 447.286L305.195 441.484L311.866 435.91L318.259 430.725L324.201 426.026L329.587 421.854L334.371 418.211L338.549 415.074L342.14 412.401L345.182 410.147L347.717 408.264L349.787 406.707L351.431 405.437L352.681 404.419L353.559 403.625L354.079 403.036L354.241 402.636L354.035 402.418L353.458 402.368L352.506 402.475L351.163 402.734L349.397 403.142L347.169 403.703L344.428 404.421L341.115 405.301L337.169 406.348L332.525 407.564L327.131 408.946L320.951 410.481L313.989 412.143L306.302 413.888L298.023 415.653L289.379 417.352L280.704 418.877L272.429 420.109L265.054 420.928L259.1 421.23L255.032 420.948L253.187 420.061L253.711 418.608L256.536 416.678L261.392 414.397L267.86 411.91L275.441 409.357L283.635 406.859L291.991 404.506L300.148 402.358L307.844 400.446L314.913 398.776L321.267 397.338L326.879 396.115L331.765 395.08L335.964 394.208L339.53 393.473L342.522 392.852L344.996 392.323L347.006 391.869L348.595 391.473L349.803 391.12L350.659 390.8L351.183 390.501L351.389 390.213L351.283 389.927L350.861 389.632L350.113 389.32L349.02 388.979L347.555 388.598L345.684 388.164L343.363 387.661L340.542 387.072L337.166 386.376L333.174 385.55L328.513 384.57L323.135 383.409L317.017 382.042L310.169 380.448L302.659 378.612L294.625 376.538L286.298 374.245L278.008 371.785L270.178 369.238L263.3 366.715L257.88 364.353L254.371 362.296L253.096 360.679L254.192 359.605L257.58 359.13L262.979 359.251L269.957 359.915L278.002 361.028L286.601 362.473L295.295 364.129L303.72 365.884L311.615 367.643L318.817 369.337L325.248 370.916L330.89 372.349L335.768 373.618L339.93 374.719L343.437 375.652L346.354 376.421L348.739 377.031L350.648 377.488L352.122 377.794L353.196 377.95L353.891 377.951L354.216 377.788L354.17 377.447L353.763 376.919L353 376.193L351.871 375.249L350.355 374.062L348.425 372.601L346.042 370.826L343.167 368.695L339.755 366.161L335.767 363.177L331.177 359.699L325.98 355.697L320.207 351.163L313.942 346.125L307.336 340.66L300.617 334.909L294.095 329.083L288.147 323.458L283.183 318.361L279.599 314.133L277.715 311.084L277.72 309.441L279.634 309.311L283.304 310.662L288.432 313.333L294.626 317.067L301.466 321.555L308.555 326.481L315.557 331.56L322.223 336.562L328.384 341.315L333.949 345.705L338.882 349.671L343.19 353.188L346.907 356.256L350.082 358.894L352.767 361.13L355.019 362.996L356.887 364.522L358.418 365.738L359.651 366.667L360.618 367.329L361.346 367.738L361.856 367.903L362.162 367.827L362.273 367.506L362.195 366.93L361.927 366.084L361.465 364.944L360.8 363.481L359.92 361.656L358.809 359.426L357.449 356.738L355.822 353.535L353.909 349.756L351.696 345.343L349.177 340.247L346.362 334.439L343.279 327.925L339.989 320.762L336.586 313.078L333.206 305.09L330.027 297.11L327.254 289.54L325.108 282.844L323.792 277.5L323.458 273.934L324.184 272.447L325.95 273.165L328.642 276.011L332.07 280.724L335.998 286.905L340.184 294.085L344.406 301.795L348.485 309.618L352.292 317.221L355.749 324.363L358.822 330.894L361.504 336.737L363.815 341.872L365.785 346.313L367.449 350.101L368.846 353.284L370.011 355.916L370.976 358.045L371.769 359.715L372.416 360.959L372.935 361.801L373.342 362.251L373.648 362.307L373.866 361.963L374.008 361.22L374.086 360.071L374.107 358.494L374.078 356.455L374.008 353.908L373.902 350.798L373.769 347.066L373.62 342.648L373.468 337.486L373.331 331.538L373.231 324.787L373.194 317.269L373.253 309.083L373.44 300.419L373.789 291.568L374.325 282.928L375.063 274.985L375.999 268.27L377.107 263.292L378.341 260.464L379.638 260.03L380.924 262.017L382.131 266.237L383.203 272.317L384.103 279.77L384.813 288.073L385.337 296.729L385.694 305.323L385.908 313.539L386.009 321.163L386.029 328.073L385.993 334.217L385.924 339.596L385.841 344.244L385.759 348.213L385.688 351.564L385.639 354.36L385.618 356.657L385.631 358.509L385.683 359.959L385.78 361.043L385.926 361.789L386.129 362.215L386.396 362.333L386.735 362.147L387.157 361.651L387.676 360.836L388.308 359.68L389.071 358.156L389.987 356.231L391.084 353.861L392.392 350.999L393.944 347.595L395.776 343.595L397.926 338.956L400.427 333.648L403.304 327.665L406.568 321.047L410.203 313.892L414.158 306.374L418.339 298.757L422.599 291.393L426.741 284.711L430.531 279.177L433.721 275.235L436.084 273.245L437.447 273.413L437.723 275.754L436.925 280.085L435.159 286.06L432.607 293.227L429.488 301.104L426.031 309.235L422.443 317.242L418.896 324.839L415.518 331.84L412.394 338.14L409.574 343.703L407.08 348.539L404.914 352.688L403.065 356.205L401.517 359.15L400.252 361.583L399.251 363.56L398.499 365.127L397.986 366.322L397.708 367.171L397.668 367.692L397.876 367.889L398.344 367.77L399.078 367.345L400.094 366.616L401.417 365.572L403.079 364.197L405.122 362.465L407.595 360.349L410.551 357.815L414.047 354.834L418.134 351.382L422.855 347.451L428.226 343.056L434.228 338.247L440.789 333.126L447.761 327.851L454.917 322.646L461.941 317.791L468.449 313.607L474.019 310.419L478.246 308.512L480.801 308.079L481.492 309.191L480.293 311.776L477.349 315.632L472.945 320.466L467.454 325.938L461.277 331.714L454.795 337.501L448.326 343.067L442.117 348.255L436.333 352.969L431.075 357.167L426.388 360.846L422.277 364.03L418.722 366.757L415.69 369.073L413.137 371.024L411.022 372.656L409.305 374.009L407.949 375.118L406.925 376.014L406.21 376.722L405.788 377.263L405.649 377.652L405.79 377.901L406.216 378.019L406.94 378.011L407.979 377.878L409.362 377.621L411.123 377.237L413.306 376.721L415.961 376.067L419.147 375.271L422.924 374.325L427.356 373.228L432.498 371.981L438.391 370.594L445.044 369.087L452.42 367.497L460.415 365.876L468.839 364.3L477.403 362.862L485.715 361.671L493.301 360.839L499.646 360.471L504.26 360.643L506.752 361.388L506.897 362.686L504.683 364.469L500.309 366.622L494.149 369.011L486.688 371.495L478.444 373.95L469.899 376.28L461.459 378.416L453.429 380.323L446.01 381.989L439.317 383.419L433.396 384.633L428.241 385.654L423.818 386.51L420.074 387.226L416.95 387.827L414.389 388.334L412.337 388.768L410.752 389.145L409.6 389.48L408.86 389.786L408.525 390.077L408.504 390.168Z" fill="url(#paint3_radial_216_337)"/>
<defs>
<radialGradient id="paint0_radial_216_337" cx="0" cy="0" r="1" gradientUnits="userSpaceOnUse" gradientTransform="translate(380.51 389.925) rotate(90) scale(389.925 380.51)">
<stop stop-color="#7AA0D1"/>
<stop offset="1" stop-color="#C6DCF9"/>
</radialGradient>
<radialGradient id="paint1_radial_216_337" cx="0" cy="0" r="1" gradientUnits="userSpaceOnUse" gradientTransform="translate(380.944 390.044) rotate(90) scale(303.368 296)">
<stop stop-color="#C6DCF9"/>
<stop offset="1" stop-color="#7AA0D1"/>
</radialGradient>
<radialGradient id="paint2_radial_216_337" cx="0" cy="0" r="1" gradientUnits="userSpaceOnUse" gradientTransform="translate(380.51 390.044) rotate(90) scale(216.691 211.491)">
<stop stop-color="#7AA0D1"/>
<stop offset="1" stop-color="#C6DCF9"/>
</radialGradient>
<radialGradient id="paint3_radial_216_337" cx="0" cy="0" r="1" gradientUnits="userSpaceOnUse" gradientTransform="translate(380.077 390.152) rotate(90) scale(130.123 126.981)">
<stop stop-color="#C6DCF9"/>
<stop offset="1" stop-color="#7AA0D1"/>
</radialGradient>
</defs>
</svg>
