<svg width="382" height="381" viewBox="0 0 382 381" fill="none" xmlns="http://www.w3.org/2000/svg">
<path fill-rule="evenodd" clip-rule="evenodd" d="M261.195 190.456L261.531 191.166L262.546 191.897L264.259 192.669L266.699 193.505L269.909 194.429L273.937 195.468L278.836 196.649L284.658 198.004L291.445 199.565L299.212 201.363L307.935 203.425L317.524 205.772L327.799 208.405L338.468 211.307L349.11 214.427L359.178 217.676L368.032 220.929L375.002 224.029L379.485 226.8L381.046 229.08L379.502 230.739L374.969 231.706L367.832 231.976L358.674 231.61L348.173 230.715L337.002 229.427L325.748 227.885L314.872 226.218L304.703 224.534L295.443 222.917L287.197 221.429L279.996 220.112L273.825 218.995L268.644 218.096L264.399 217.429L261.038 217.005L258.52 216.837L256.816 216.941L255.917 217.344L255.834 218.076L256.547 219.16L258.032 220.612L260.287 222.459L263.326 224.739L267.176 227.492L271.866 230.766L277.418 234.605L283.84 239.047L291.105 244.115L299.134 249.8L307.771 256.05L316.767 262.749L325.764 269.707L334.296 276.649L341.817 283.226L347.752 289.042L351.581 293.701L352.924 296.868L351.619 298.331L347.751 298.034L341.643 296.089L333.787 292.747L324.761 288.344L315.137 283.25L305.419 277.814L296.004 272.335L287.172 267.041L279.096 262.097L271.864 257.605L265.499 253.623L259.983 250.175L255.272 247.261L251.31 244.872L248.038 242.989L245.4 241.597L243.346 240.679L241.833 240.228L240.829 240.24L240.31 240.722L240.26 241.687L240.675 243.158L241.555 245.167L242.909 247.757L244.752 250.976L247.101 254.881L249.972 259.531L253.377 264.981L257.317 271.277L261.77 278.44L266.681 286.451L271.952 295.228L277.425 304.605L282.874 314.312L288.007 323.96L292.479 333.055L295.919 341.026L297.986 347.293L298.42 351.353L297.097 352.869L294.06 351.734L289.509 348.091L283.771 342.306L277.239 334.891L270.313 326.419L263.345 317.44L256.617 308.429L250.327 299.753L244.594 291.67L239.476 284.34L234.985 277.849L231.099 272.227L227.782 267.47L224.989 263.554L222.673 260.451L220.792 258.134L219.31 256.588L218.198 255.813L217.438 255.832L217.011 256.666L216.883 258.306L217.03 260.759L217.435 264.051L218.083 268.223L218.964 273.329L220.064 279.419L221.366 286.537L222.842 294.7L224.45 303.882L226.132 313.985L227.804 324.814L229.36 336.053L230.674 347.251L231.604 357.829L232.017 367.119L231.801 374.441L230.89 379.199L229.285 380.988L227.05 379.672L224.312 375.409L221.233 368.616L217.985 359.888L214.73 349.892L211.597 339.274L208.675 328.59L206.019 318.271L203.65 308.62L201.565 299.824L199.747 291.979L198.169 285.114L196.799 279.216L195.604 274.246L194.556 270.151L193.624 266.878L192.781 264.378L192.005 262.608L191.272 261.538L190.56 261.148L189.851 261.431L189.122 262.391L188.354 264.048L187.524 266.429L186.608 269.576L185.58 273.536L184.411 278.364L183.071 284.111L181.527 290.82L179.749 298.509L177.709 307.158L175.386 316.683L172.775 326.913L169.893 337.565L166.788 348.227L163.544 358.363L160.286 367.339L157.168 374.483L154.364 379.183L152.04 380.986L150.328 379.69L149.305 375.384L148.981 368.434L149.3 359.413L150.157 348.994L151.419 337.853L152.945 326.587L154.607 315.668L156.293 305.433L157.918 296.096L159.418 287.767L160.75 280.483L161.883 274.231L162.8 268.973L163.486 264.655L163.93 261.226L164.119 258.642L164.037 256.873L163.66 255.91L162.954 255.762L161.899 256.413L160.478 257.837L158.663 260.03L156.419 263.007L153.705 266.791L150.474 271.412L146.682 276.896L142.289 283.249L137.271 290.449L131.634 298.421L125.426 307.017L118.757 315.997L111.811 325.009L104.855 333.598L98.2349 341.22L92.3435 347.302L87.5791 351.315L84.2831 352.865L82.6804 351.771L82.8391 348.098L84.6602 342.152L87.9032 334.415L92.2349 325.46L97.2872 315.864L102.707 306.138L108.193 296.687L113.508 287.801L118.485 279.661L123.015 272.36L127.039 265.926L130.53 260.344L133.486 255.57L135.916 251.551L137.839 248.226L139.27 245.54L140.225 243.441L140.713 241.886L140.737 240.843L140.294 240.285L139.368 240.199L137.939 240.576L135.973 241.419L133.431 242.735L130.264 244.538L126.416 246.846L121.828 249.675L116.443 253.038L110.216 256.936L103.122 261.349L95.1763 266.227L86.4556 271.474L77.1176 276.938L67.4246 282.399L57.7545 287.569L48.5956 292.107L40.5138 295.643L34.0909 297.83L29.8395 298.4L28.1136 297.219L29.0399 294.312L32.4937 289.871L38.1257 284.214L45.4317 277.731L53.8409 270.822L62.7976 263.846L71.8209 257.09L80.5346 250.76L88.6723 244.98L96.0659 239.812L102.625 235.271L108.317 231.339L113.142 227.978L117.124 225.145L120.291 222.792L122.669 220.878L124.276 219.366L125.113 218.225L125.16 217.438L124.39 216.985L122.813 216.834L120.426 216.961L117.203 217.345L113.102 217.974L108.073 218.837L102.063 219.92L95.0283 221.207L86.9477 222.67L77.8444 224.27L67.8092 225.949L57.028 227.625L45.8066 229.195L34.5856 230.533L23.9349 231.499L14.5167 231.958L7.01457 231.794L2.03452 230.94L0 229.389L1.07067 227.2L5.11158 224.497L11.7232 221.438L20.3215 218.198L30.2407 214.938L40.8307 211.791L51.5271 208.85L61.8879 206.172L71.6007 203.78L80.4695 201.673L88.3921 199.835L95.3346 198.238L101.308 196.852L106.351 195.645L110.514 194.586L113.85 193.646L116.41 192.797L118.237 192.016L119.361 191.28L119.805 190.568L119.576 189.859L118.67 189.133L117.07 188.369L114.748 187.545L111.664 186.636L107.77 185.618L103.013 184.461L97.3411 183.136L90.7101 181.61L83.0986 179.852L74.5238 177.833L65.0635 175.533L54.8812 172.944L44.25 170.083L33.5703 166.993L23.3698 163.757L14.2775 160.494L6.96366 157.359L2.04978 154.523L0.00457853 152.155L1.05333 150.391L5.12976 149.312L11.8876 148.934L20.7681 149.205L31.1009 150.024L42.2075 151.258L53.4831 152.769L64.4441 154.424L74.7423 156.112L84.1563 157.744L92.5678 159.256L99.9353 160.602L106.268 161.752L111.603 162.687L115.994 163.392L119.492 163.855L122.142 164.066L123.975 164.006L125.003 163.653L125.216 162.975L124.627 161.948L123.264 160.557L121.133 158.774L118.219 156.566L114.501 153.891L109.947 150.703L104.533 146.957L98.2483 142.613L91.1138 137.645L83.199 132.056L74.6449 125.891L65.6847 119.253L56.6593 112.32L48.0181 105.353L40.2979 98.6923L34.073 92.7279L29.8784 87.8601L28.1217 84.4371L29.0046 82.6949L32.4802 82.7147L38.2612 84.4107L45.8762 87.5518L54.7557 91.8102L64.3206 96.8185L74.0529 102.221L83.5379 107.711L92.477 113.047L100.681 118.055L108.05 122.624L114.553 126.689L120.202 130.223L125.038 133.221L129.115 135.693L132.493 137.655L135.228 139.125L137.372 140.117L138.969 140.642L140.052 140.704L140.647 140.298L140.771 139.411L140.43 138.023L139.625 136.102L138.347 133.607L136.583 130.492L134.316 126.7L131.529 122.173L128.209 116.854L124.354 110.695L119.98 103.67L115.136 95.7904L109.914 87.1269L104.46 77.8299L98.9894 68.1529L93.7836 58.4644L89.1822 49.2448L85.5534 41.0556L83.2477 34.4803L82.5413 30.0404L83.5822 28.1054L86.3563 28.8218L90.6856 32.0845L96.2597 37.5601L102.692 44.7534L109.581 53.0957L116.563 62.0277L123.345 71.061L129.715 79.8105L135.541 88.0014L140.759 95.4584L145.349 102.086L149.33 107.847L152.734 112.741L155.608 116.788L157.997 120.019L159.944 122.46L161.488 124.128L162.657 125.027L163.472 125.137L163.95 124.432L164.124 122.92L164.019 120.598L163.654 117.442L163.044 113.413L162.2 108.46L161.133 102.53L159.862 95.5783L158.412 87.5808L156.821 78.5567L155.146 68.5904L153.466 57.8591L151.883 46.6583L150.522 35.418L149.521 24.6985L149.017 15.1568L149.128 7.47819L149.925 2.27877L151.423 0L153.564 0.824484L156.233 4.64042L159.269 11.067L162.501 19.531L165.765 29.3696L168.925 39.9283L171.884 50.6342L174.585 61.0348L177 70.8077L179.129 79.7486L180.988 87.7486L182.603 94.7691L184.004 100.819L185.224 105.934L186.294 110.165L187.243 113.565L188.098 116.185L188.883 118.069L189.622 119.249L190.335 119.746L191.044 119.571L191.768 118.719L192.528 117.175L193.347 114.911L194.248 111.89L195.256 108.062L196.401 103.376L197.711 97.779L199.22 91.2255L200.959 83.6921L202.956 75.1921L205.233 65.7977L207.799 55.6644L210.64 45.056L213.714 34.3624L216.943 24.1018L220.208 14.8967L223.36 7.41717L226.226 2.29233L228.637 0.00677657L230.453 0.807643L231.587 4.65227L232.021 11.2148L231.798 19.9501L231.018 30.1926L229.812 41.2611L228.318 52.5428L226.67 63.5433L224.982 73.904L223.342 83.3939L221.819 91.8876L220.458 99.3384L219.291 105.752L218.339 111.165L217.615 115.629L217.132 119.196L216.901 121.913L216.939 123.81L217.267 124.902L217.919 125.18L218.917 124.654L220.278 123.353L222.029 121.282L224.201 118.432L226.838 114.778L229.983 110.292L233.683 104.947L237.978 98.732L242.896 91.6634L248.436 83.8066L254.559 75.2963L261.165 66.3574L268.083 57.322L275.058 48.6315L281.757 40.817L287.792 34.4523L292.761 30.0788L296.309 28.1176L298.191 28.7886L298.31 32.0653L296.741 37.6781L293.704 45.1672L289.521 53.9677L284.559 63.4981L279.176 73.2338L273.683 82.7509L268.327 91.7418L263.288 100.009L258.682 107.447L254.575 114.018L250.998 119.734L247.958 124.633L245.444 128.768L243.442 132.2L241.934 134.984L240.904 137.174L240.342 138.812L240.244 139.935L240.612 140.569L241.46 140.73L242.807 140.426L244.685 139.658L247.132 138.418L250.196 136.693L253.931 134.467L258.398 131.722L263.652 128.445L269.743 124.632L276.699 120.298L284.512 115.489L293.117 110.292L302.371 104.85L312.03 99.371L321.734 94.1322L331.011 89.4694L339.304 85.7498L346.028 83.3272L350.654 82.486L352.797 83.386L352.291 86.0266L349.222 90.242L343.906 95.7306L336.829 102.109L328.557 108.976L319.653 115.963L310.612 122.769L301.828 129.178L293.585 135.051L286.066 140.318L279.37 144.958L273.54 148.986L268.577 152.435L264.463 155.349L261.169 157.775L258.666 159.756L256.936 161.33L255.976 162.528L255.801 163.371L256.442 163.875L257.89 164.072L260.147 163.988L263.235 163.644L267.192 163.053L272.07 162.227L277.92 161.178L284.79 159.922L292.704 158.484L301.648 156.903L311.545 155.232L322.224 153.549L333.401 151.954L344.658 150.57L355.442 149.535L365.102 148.987L372.954 149.046L378.37 149.787L380.891 151.23L380.314 153.324L376.725 155.956L370.488 158.97L362.162 162.192L352.408 165.458L341.884 168.631L331.172 171.609L320.734 174.332L310.902 176.77L301.89 178.921L293.812 180.801L286.714 182.434L280.588 183.851L275.4 185.084L271.101 186.165L267.636 187.123L264.955 187.984L263.015 188.774L261.78 189.516L261.229 190.23L261.195 190.456Z" fill="url(#paint0_radial_216_357)"/>
<path fill-rule="evenodd" clip-rule="evenodd" d="M234.522 190.341L234.732 190.785L235.366 191.241L236.436 191.724L237.96 192.246L239.965 192.823L242.48 193.472L245.54 194.209L249.177 195.056L253.415 196.031L258.266 197.153L263.714 198.442L269.703 199.907L276.121 201.552L282.784 203.364L289.431 205.313L295.719 207.342L301.248 209.374L305.602 211.31L308.402 213.041L309.376 214.465L308.413 215.501L305.581 216.104L301.123 216.273L295.404 216.044L288.846 215.486L281.868 214.681L274.839 213.718L268.047 212.677L261.696 211.625L255.913 210.615L250.762 209.686L246.265 208.864L242.411 208.166L239.175 207.605L236.523 207.188L234.425 206.923L232.852 206.818L231.787 206.883L231.226 207.135L231.174 207.592L231.619 208.269L232.547 209.175L233.955 210.329L235.854 211.753L238.258 213.473L241.187 215.518L244.655 217.915L248.666 220.69L253.203 223.855L258.217 227.405L263.612 231.309L269.23 235.493L274.85 239.838L280.178 244.174L284.875 248.282L288.582 251.914L290.974 254.824L291.813 256.802L290.998 257.716L288.582 257.53L284.767 256.316L279.861 254.228L274.223 251.478L268.212 248.297L262.143 244.902L256.263 241.48L250.747 238.173L245.703 235.085L241.186 232.28L237.211 229.793L233.766 227.639L230.823 225.82L228.349 224.327L226.305 223.152L224.658 222.282L223.375 221.709L222.43 221.427L221.803 221.435L221.478 221.736L221.448 222.338L221.706 223.257L222.256 224.512L223.102 226.129L224.253 228.14L225.72 230.579L227.513 233.483L229.64 236.887L232.101 240.819L234.881 245.293L237.949 250.296L241.241 255.778L244.659 261.634L248.062 267.697L251.268 273.723L254.061 279.403L256.21 284.381L257.5 288.295L257.772 290.832L256.946 291.778L255.048 291.069L252.206 288.794L248.622 285.181L244.543 280.55L240.217 275.258L235.865 269.651L231.663 264.023L227.735 258.604L224.154 253.556L220.958 248.978L218.153 244.924L215.726 241.413L213.654 238.441L211.909 235.996L210.463 234.058L209.289 232.611L208.363 231.645L207.668 231.161L207.194 231.172L206.927 231.694L206.847 232.718L206.939 234.25L207.192 236.306L207.597 238.912L208.147 242.1L208.834 245.904L209.647 250.35L210.569 255.448L211.573 261.183L212.624 267.493L213.668 274.256L214.64 281.276L215.46 288.27L216.041 294.876L216.299 300.678L216.164 305.251L215.595 308.223L214.593 309.34L213.197 308.518L211.487 305.856L209.564 301.613L207.536 296.162L205.503 289.919L203.545 283.287L201.721 276.615L200.062 270.17L198.582 264.142L197.28 258.648L196.145 253.748L195.159 249.461L194.303 245.778L193.557 242.673L192.902 240.116L192.32 238.071L191.794 236.51L191.309 235.405L190.851 234.737L190.407 234.493L189.964 234.67L189.509 235.27L189.029 236.304L188.511 237.791L187.938 239.757L187.296 242.23L186.566 245.245L185.729 248.835L184.765 253.025L183.655 257.827L182.38 263.229L180.929 269.178L179.299 275.567L177.499 282.22L175.56 288.879L173.534 295.21L171.499 300.815L169.551 305.277L167.8 308.213L166.348 309.339L165.279 308.529L164.641 305.84L164.438 301.5L164.637 295.865L165.173 289.358L165.961 282.4L166.914 275.363L167.952 268.544L169.005 262.152L170.02 256.32L170.957 251.118L171.788 246.568L172.496 242.664L173.069 239.38L173.497 236.683L173.775 234.542L173.893 232.928L173.842 231.823L173.606 231.221L173.165 231.129L172.506 231.536L171.619 232.425L170.485 233.795L169.084 235.654L167.389 238.017L165.371 240.904L163.002 244.328L160.258 248.296L157.125 252.793L153.604 257.772L149.727 263.141L145.561 268.749L141.223 274.378L136.879 279.742L132.744 284.502L129.065 288.301L126.089 290.807L124.03 291.776L123.029 291.092L123.129 288.799L124.266 285.085L126.291 280.252L128.997 274.66L132.152 268.666L135.537 262.592L138.964 256.689L142.283 251.139L145.392 246.055L148.221 241.495L150.734 237.477L152.914 233.991L154.76 231.009L156.279 228.499L157.479 226.422L158.373 224.745L158.969 223.434L159.274 222.463L159.29 221.811L159.012 221.463L158.434 221.409L157.541 221.645L156.314 222.171L154.726 222.993L152.748 224.119L150.345 225.56L147.479 227.327L144.116 229.428L140.227 231.862L135.796 234.618L130.834 237.665L125.387 240.942L119.555 244.355L113.501 247.765L107.462 250.995L101.741 253.829L96.6939 256.037L92.6824 257.403L90.0272 257.759L88.9492 257.021L89.5278 255.206L91.6849 252.432L95.2024 248.899L99.7655 244.85L105.017 240.535L110.611 236.178L116.247 231.959L121.689 228.005L126.772 224.395L131.389 221.168L135.486 218.331L139.041 215.875L142.055 213.776L144.541 212.007L146.519 210.538L148.005 209.342L149.009 208.397L149.531 207.685L149.56 207.193L149.079 206.91L148.095 206.816L146.604 206.895L144.591 207.135L142.03 207.528L138.889 208.067L135.135 208.744L130.741 209.547L125.695 210.461L120.009 211.46L113.742 212.509L107.008 213.556L99.9995 214.536L92.9914 215.372L86.3394 215.975L80.4572 216.262L75.7716 216.16L72.6613 215.626L71.3906 214.657L72.0593 213.291L74.5831 211.602L78.7125 209.691L84.0826 207.668L90.2778 205.632L96.8918 203.667L103.572 201.83L110.043 200.157L116.11 198.663L121.649 197.347L126.597 196.199L130.933 195.202L134.664 194.336L137.813 193.583L140.413 192.921L142.497 192.334L144.096 191.804L145.237 191.316L145.939 190.856L146.216 190.412L146.073 189.969L145.507 189.515L144.508 189.038L143.057 188.523L141.131 187.956L138.699 187.32L135.729 186.597L132.186 185.77L128.044 184.817L123.291 183.719L117.935 182.458L112.027 181.021L105.667 179.404L99.0274 177.617L92.3573 175.687L85.9865 173.666L80.3078 171.628L75.7398 169.67L72.6708 167.899L71.3935 166.42L72.0485 165.318L74.5945 164.645L78.8151 164.408L84.3615 164.578L90.815 165.089L97.7517 165.86L104.794 166.804L111.64 167.837L118.072 168.891L123.951 169.911L129.205 170.855L133.806 171.696L137.761 172.414L141.094 172.998L143.836 173.438L146.02 173.728L147.675 173.859L148.82 173.822L149.462 173.601L149.595 173.178L149.228 172.537L148.377 171.668L147.045 170.554L145.226 169.175L142.903 167.504L140.059 165.514L136.678 163.174L132.753 160.461L128.297 157.358L123.353 153.867L118.011 150.017L112.415 145.871L106.778 141.541L101.381 137.19L96.5591 133.03L92.6712 129.304L90.0515 126.264L88.9543 124.126L89.5057 123.038L91.6765 123.051L95.287 124.11L100.043 126.072L105.589 128.731L111.563 131.859L117.641 135.234L123.565 138.662L129.148 141.995L134.272 145.123L138.874 147.976L142.936 150.515L146.464 152.722L149.484 154.595L152.031 156.139L154.14 157.364L155.849 158.282L157.188 158.902L158.185 159.23L158.861 159.268L159.233 159.015L159.311 158.461L159.098 157.594L158.595 156.394L157.797 154.836L156.695 152.89L155.279 150.522L153.538 147.695L151.465 144.373L149.057 140.526L146.325 136.138L143.3 131.217L140.038 125.806L136.632 120L133.215 113.956L129.964 107.905L127.09 102.147L124.824 97.0321L123.384 92.9254L122.943 90.1524L123.593 88.9439L125.325 89.3913L128.029 91.4291L131.511 94.8489L135.528 99.3416L139.831 104.552L144.191 110.13L148.427 115.772L152.405 121.237L156.044 126.352L159.303 131.01L162.17 135.149L164.656 138.747L166.782 141.804L168.577 144.332L170.069 146.349L171.285 147.874L172.249 148.916L172.979 149.477L173.489 149.546L173.787 149.106L173.896 148.161L173.83 146.711L173.603 144.74L173.221 142.224L172.694 139.13L172.028 135.427L171.234 131.085L170.328 126.09L169.334 120.454L168.288 114.229L167.239 107.527L166.251 100.531L165.4 93.5111L164.775 86.8161L164.461 80.8567L164.53 76.061L165.028 72.8136L165.963 71.3904L167.301 71.9053L168.967 74.2886L170.864 78.3024L172.882 83.5887L174.92 89.7334L176.894 96.328L178.743 103.014L180.429 109.51L181.938 115.614L183.267 121.198L184.428 126.195L185.437 130.579L186.312 134.358L187.074 137.552L187.742 140.195L188.335 142.319L188.869 143.955L189.359 145.131L189.821 145.868L190.266 146.179L190.709 146.069L191.161 145.537L191.636 144.573L192.147 143.159L192.71 141.272L193.34 138.882L194.054 135.955L194.873 132.459L195.815 128.366L196.901 123.661L198.149 118.352L199.571 112.485L201.173 106.156L202.948 99.5306L204.868 92.8518L206.884 86.4434L208.924 80.6943L210.892 76.0228L212.682 72.8221L214.188 71.3946L215.322 71.8948L216.031 74.296L216.301 78.3947L216.162 83.8504L215.675 90.2474L214.922 97.1604L213.989 104.206L212.96 111.077L211.905 117.548L210.881 123.475L209.93 128.78L209.08 133.433L208.351 137.439L207.756 140.82L207.304 143.608L207.003 145.836L206.858 147.532L206.882 148.717L207.087 149.399L207.494 149.573L208.117 149.244L208.968 148.431L210.061 147.138L211.418 145.358L213.064 143.076L215.029 140.274L217.339 136.936L220.022 133.054L223.094 128.64L226.554 123.733L230.378 118.417L234.504 112.835L238.824 107.191L243.181 101.764L247.365 96.883L251.134 92.9079L254.237 90.1764L256.454 88.9515L257.628 89.3706L257.703 91.4171L256.723 94.9226L254.826 99.6L252.214 105.096L249.115 111.049L245.752 117.129L242.322 123.073L238.977 128.689L235.83 133.852L232.953 138.497L230.388 142.602L228.154 146.171L226.255 149.231L224.685 151.814L223.435 153.957L222.493 155.696L221.85 157.064L221.499 158.087L221.437 158.788L221.667 159.184L222.197 159.285L223.038 159.095L224.211 158.615L225.739 157.841L227.653 156.763L229.986 155.373L232.775 153.659L236.057 151.612L239.861 149.23L244.206 146.524L249.085 143.52L254.46 140.274L260.24 136.875L266.272 133.453L272.333 130.182L278.127 127.269L283.306 124.946L287.506 123.433L290.395 122.908L291.733 123.47L291.417 125.119L289.5 127.752L286.18 131.18L281.76 135.164L276.594 139.453L271.033 143.816L265.386 148.067L259.9 152.069L254.752 155.738L250.056 159.027L245.874 161.925L242.232 164.441L239.133 166.595L236.564 168.415L234.506 169.93L232.943 171.167L231.863 172.151L231.263 172.899L231.154 173.426L231.554 173.74L232.458 173.863L233.868 173.811L235.796 173.596L238.268 173.227L241.314 172.711L244.968 172.055L249.259 171.271L254.202 170.373L259.788 169.386L265.969 168.342L272.639 167.291L279.62 166.295L286.65 165.431L293.385 164.784L299.419 164.442L304.322 164.478L307.705 164.942L309.28 165.843L308.919 167.15L306.678 168.794L302.782 170.676L297.582 172.689L291.491 174.729L284.918 176.71L278.227 178.571L271.708 180.271L265.567 181.794L259.939 183.137L254.894 184.311L250.46 185.331L246.634 186.216L243.394 186.987L240.709 187.662L238.545 188.26L236.871 188.798L235.659 189.291L234.888 189.754L234.543 190.201L234.522 190.341Z" fill="url(#paint1_radial_216_357)"/>
<path fill-rule="evenodd" clip-rule="evenodd" d="M216.863 190.354L216.989 190.621L217.37 190.894L218.012 191.184L218.926 191.497L220.129 191.843L221.638 192.233L223.474 192.675L225.656 193.183L228.199 193.768L231.11 194.442L234.379 195.215L237.972 196.094L241.822 197.081L245.82 198.168L249.808 199.337L253.581 200.555L256.899 201.774L259.511 202.935L261.191 203.974L261.776 204.828L261.198 205.45L259.499 205.812L256.824 205.913L253.392 205.776L249.457 205.441L245.271 204.958L241.054 204.381L236.978 203.756L233.168 203.125L229.698 202.519L226.607 201.961L223.909 201.468L221.596 201.049L219.655 200.712L218.064 200.462L216.805 200.303L215.861 200.24L215.222 200.28L214.885 200.43L214.854 200.705L215.122 201.111L215.678 201.655L216.523 202.347L217.662 203.202L219.105 204.233L220.862 205.46L222.943 206.899L225.349 208.564L228.072 210.463L231.08 212.593L234.317 214.935L237.688 217.445L241.06 220.053L244.257 222.654L247.075 225.119L249.299 227.298L250.734 229.044L251.238 230.231L250.749 230.779L249.299 230.668L247.01 229.939L244.066 228.687L240.684 227.037L237.077 225.128L233.436 223.091L229.908 221.037L226.598 219.054L223.572 217.201L220.862 215.518L218.476 214.026L216.409 212.733L214.644 211.642L213.159 210.746L211.933 210.041L210.945 209.519L210.175 209.175L209.608 209.006L209.232 209.011L209.037 209.191L209.019 209.552L209.174 210.104L209.504 210.857L210.011 211.827L210.702 213.034L211.582 214.497L212.658 216.239L213.934 218.282L215.41 220.641L217.079 223.325L218.919 226.327L220.895 229.616L222.945 233.13L224.987 236.768L226.911 240.383L228.587 243.791L229.876 246.778L230.65 249.127L230.813 250.649L230.317 251.217L229.179 250.791L227.474 249.426L225.323 247.258L222.876 244.48L220.28 241.305L217.669 237.94L215.148 234.563L212.791 231.312L210.643 228.283L208.725 225.536L207.042 223.104L205.585 220.997L204.342 219.214L203.296 217.747L202.428 216.584L201.723 215.716L201.168 215.137L200.751 214.846L200.466 214.853L200.306 215.166L200.258 215.781L200.313 216.7L200.465 217.933L200.708 219.497L201.038 221.41L201.45 223.692L201.938 226.359L202.491 229.419L203.094 232.859L203.724 236.645L204.351 240.703L204.934 244.915L205.426 249.111L205.775 253.075L205.93 256.557L205.848 259.3L205.507 261.083L204.906 261.754L204.068 261.261L203.042 259.663L201.888 257.117L200.671 253.847L199.452 250.101L198.277 246.122L197.182 242.118L196.187 238.252L195.299 234.635L194.518 231.339L193.837 228.399L193.245 225.826L192.732 223.616L192.284 221.754L191.891 220.219L191.542 218.993L191.226 218.056L190.935 217.393L190.661 216.992L190.394 216.845L190.128 216.951L189.855 217.311L189.567 217.932L189.256 218.824L188.913 220.004L188.528 221.488L188.09 223.297L187.588 225.45L187.009 227.964L186.343 230.846L185.578 234.087L184.708 237.656L183.729 241.49L182.649 245.481L181.486 249.477L180.27 253.275L179.049 256.639L177.881 259.316L176.83 261.077L175.959 261.753L175.318 261.267L174.934 259.654L174.813 257.049L174.932 253.669L175.254 249.764L175.726 245.59L176.298 241.368L176.921 237.276L177.553 233.441L178.162 229.942L178.724 226.82L179.223 224.091L179.648 221.748L179.991 219.778L180.248 218.16L180.415 216.875L180.486 215.906L180.455 215.244L180.313 214.883L180.049 214.827L179.654 215.071L179.121 215.605L178.441 216.426L177.6 217.542L176.583 218.96L175.373 220.692L173.951 222.747L172.305 225.127L170.425 227.825L168.312 230.813L165.986 234.034L163.487 237.399L160.884 240.776L158.277 243.995L155.796 246.851L153.589 249.13L151.803 250.634L150.568 251.215L149.968 250.805L150.027 249.429L150.71 247.201L151.925 244.301L153.548 240.945L155.441 237.349L157.472 233.705L159.528 230.163L161.52 226.833L163.385 223.783L165.083 221.047L166.59 218.636L167.899 216.544L169.006 214.755L169.917 213.249L170.637 212.003L171.174 210.996L171.532 210.21L171.715 209.627L171.724 209.236L171.557 209.027L171.211 208.995L170.675 209.136L169.938 209.452L168.986 209.945L167.799 210.621L166.357 211.486L164.638 212.546L162.62 213.806L160.286 215.267L157.628 216.921L154.65 218.749L151.382 220.715L147.883 222.762L144.251 224.809L140.627 226.746L137.195 228.447L134.166 229.772L131.759 230.591L130.166 230.805L129.52 230.362L129.867 229.273L131.161 227.609L133.271 225.489L136.009 223.059L139.16 220.47L142.517 217.856L145.898 215.325L149.164 212.953L152.213 210.787L154.984 208.85L157.442 207.148L159.574 205.675L161.383 204.415L162.875 203.354L164.062 202.472L164.953 201.755L165.555 201.188L165.869 200.761L165.886 200.465L165.598 200.296L165.007 200.24L164.112 200.287L162.904 200.431L161.368 200.667L159.483 200.99L157.231 201.396L154.595 201.878L151.567 202.426L148.155 203.026L144.395 203.655L140.355 204.283L136.15 204.872L131.945 205.373L127.954 205.735L124.424 205.907L121.613 205.846L119.747 205.526L118.984 204.944L119.386 204.124L120.9 203.111L123.377 201.965L126.6 200.75L130.317 199.529L134.285 198.35L138.293 197.248L142.176 196.244L145.816 195.347L149.139 194.558L152.108 193.869L154.71 193.271L156.948 192.751L158.838 192.299L160.398 191.902L161.648 191.55L162.607 191.232L163.292 190.939L163.713 190.663L163.88 190.397L163.794 190.131L163.454 189.859L162.855 189.572L161.984 189.264L160.829 188.923L159.37 188.542L157.587 188.108L155.462 187.611L152.977 187.04L150.124 186.381L146.911 185.624L143.366 184.762L139.55 183.792L135.566 182.72L131.564 181.562L127.742 180.349L124.335 179.127L121.594 177.952L119.753 176.889L118.986 176.002L119.379 175.341L120.907 174.937L123.439 174.795L126.767 174.896L130.639 175.203L134.801 175.666L139.026 176.232L143.134 176.852L146.993 177.484L150.521 178.096L153.673 178.663L156.434 179.167L158.807 179.598L160.806 179.948L162.451 180.213L163.762 180.386L164.755 180.465L165.442 180.443L165.827 180.31L165.907 180.056L165.687 179.672L165.176 179.15L164.377 178.482L163.285 177.655L161.892 176.652L160.185 175.458L158.157 174.054L155.802 172.426L153.128 170.564L150.162 168.47L146.956 166.16L143.599 163.672L140.217 161.074L136.978 158.464L134.085 155.967L131.753 153.732L130.181 151.908L129.523 150.625L129.853 149.973L131.156 149.98L133.322 150.616L136.176 151.793L139.503 153.388L143.088 155.265L146.735 157.29L150.289 159.347L153.639 161.347L156.713 163.223L159.475 164.935L161.911 166.459L164.028 167.783L165.84 168.907L167.368 169.833L168.634 170.568L169.659 171.119L170.463 171.491L171.061 171.688L171.467 171.711L171.69 171.559L171.736 171.226L171.609 170.706L171.307 169.986L170.828 169.051L170.167 167.884L169.317 166.463L168.273 164.767L167.029 162.773L165.584 160.465L163.945 157.833L162.13 154.88L160.173 151.633L158.129 148.15L156.079 144.523L154.128 140.893L152.404 137.438L151.044 134.369L150.18 131.905L149.916 130.241L150.306 129.516L151.345 129.784L152.967 131.007L155.056 133.059L157.467 135.755L160.048 138.881L162.665 142.228L165.206 145.613L167.593 148.892L169.777 151.961L171.732 154.756L173.452 157.239L174.944 159.398L176.219 161.232L177.296 162.749L178.191 163.959L178.921 164.874L179.5 165.499L179.938 165.836L180.243 165.877L180.422 165.613L180.487 165.046L180.448 164.176L180.312 162.994L180.083 161.484L179.766 159.628L179.367 157.406L178.89 154.8L178.347 151.804L177.751 148.422L177.123 144.687L176.493 140.666L175.9 136.468L175.39 132.256L175.015 128.239L174.826 124.664L174.868 121.786L175.167 119.838L175.728 118.984L176.53 119.293L177.53 120.723L178.668 123.131L179.879 126.303L181.102 129.99L182.286 133.946L183.396 137.958L184.408 141.856L185.313 145.518L186.11 148.869L186.807 151.866L187.412 154.497L187.937 156.764L188.394 158.681L188.795 160.267L189.151 161.541L189.471 162.523L189.766 163.229L190.042 163.671L190.31 163.857L190.575 163.791L190.847 163.472L191.131 162.894L191.438 162.045L191.776 160.913L192.154 159.479L192.583 157.723L193.074 155.625L193.639 153.169L194.291 150.346L195.039 147.161L195.893 143.641L196.854 139.843L197.919 135.868L199.071 131.861L200.281 128.016L201.504 124.566L202.685 121.763L203.759 119.843L204.663 118.986L205.343 119.287L205.768 120.727L205.931 123.186L205.847 126.46L205.555 130.298L205.103 134.446L204.543 138.674L203.926 142.796L203.293 146.678L202.679 150.235L202.108 153.417L201.598 156.21L201.161 158.613L200.804 160.642L200.533 162.314L200.352 163.651L200.265 164.669L200.279 165.38L200.402 165.789L200.646 165.893L201.02 165.696L201.531 165.209L202.186 164.433L203.001 163.365L203.989 161.995L205.167 160.314L206.554 158.311L208.163 155.982L210.006 153.333L212.082 150.389L214.377 147.2L216.852 143.85L219.445 140.464L222.058 137.208L224.569 134.279L226.83 131.894L228.692 130.256L230.022 129.521L230.727 129.772L230.772 131L230.184 133.103L229.046 135.91L227.478 139.208L225.619 142.779L223.601 146.427L221.543 149.994L219.536 153.363L217.648 156.461L215.922 159.248L214.383 161.711L213.042 163.852L211.903 165.688L210.961 167.238L210.211 168.524L209.646 169.567L209.26 170.388L209.049 171.002L209.012 171.423L209.15 171.66L209.468 171.72L209.973 171.607L210.676 171.319L211.593 170.854L212.742 170.208L214.142 169.374L215.815 168.345L217.784 167.117L220.067 165.688L222.673 164.064L225.601 162.262L228.826 160.314L232.294 158.275L235.913 156.222L239.55 154.259L243.026 152.511L246.134 151.117L248.653 150.21L250.387 149.894L251.19 150.232L251 151.221L249.85 152.801L247.858 154.858L245.206 157.248L242.106 159.821L238.77 162.439L235.382 164.99L232.09 167.391L229.001 169.592L226.183 171.566L223.674 173.305L221.489 174.814L219.63 176.107L218.088 177.199L216.854 178.108L215.916 178.85L215.268 179.44L214.908 179.889L214.842 180.205L215.082 180.394L215.625 180.468L216.471 180.436L217.628 180.307L219.111 180.086L220.939 179.776L223.131 179.383L225.705 178.912L228.671 178.374L232.023 177.781L235.731 177.155L239.733 176.524L243.922 175.927L248.14 175.408L252.181 175.02L255.801 174.815L258.743 174.837L260.773 175.115L261.718 175.655L261.502 176.44L260.157 177.426L257.819 178.556L254.699 179.763L251.044 180.987L247.101 182.176L243.086 183.292L239.175 184.312L235.49 185.226L232.113 186.032L229.086 186.736L226.426 187.348L224.131 187.879L222.187 188.342L220.576 188.747L219.277 189.105L218.273 189.428L217.545 189.724L217.083 190.002L216.876 190.27L216.863 190.354Z" fill="url(#paint2_radial_216_357)"/>
<defs>
<radialGradient id="paint0_radial_216_357" cx="0" cy="0" r="1" gradientUnits="userSpaceOnUse" gradientTransform="translate(190.523 190.494) rotate(90) scale(190.494 190.523)">
<stop stop-color="#7AA0D1"/>
<stop offset="1" stop-color="#C6DCF9"/>
</radialGradient>
<radialGradient id="paint1_radial_216_357" cx="0" cy="0" r="1" gradientUnits="userSpaceOnUse" gradientTransform="translate(190.383 190.365) rotate(90) scale(118.975 118.993)">
<stop stop-color="#C6DCF9"/>
<stop offset="1" stop-color="#7AA0D1"/>
</radialGradient>
<radialGradient id="paint2_radial_216_357" cx="0" cy="0" r="1" gradientUnits="userSpaceOnUse" gradientTransform="translate(190.38 190.369) rotate(90) scale(71.385 71.3957)">
<stop stop-color="#7AA0D1"/>
<stop offset="1" stop-color="#C6DCF9"/>
</radialGradient>
</defs>
</svg>
