<svg width="202" height="202" viewBox="0 0 202 202" fill="none" xmlns="http://www.w3.org/2000/svg">
<path fill-rule="evenodd" clip-rule="evenodd" d="M114.657 101L114.689 101.137L114.786 101.275L114.948 101.418L115.179 101.567L115.48 101.724L115.856 101.892L116.311 102.073L116.851 102.27L117.483 102.487L118.214 102.727L119.054 102.993L120.014 103.292L121.105 103.628L122.339 104.007L123.733 104.435L125.3 104.921L127.059 105.473L129.028 106.099L131.224 106.812L133.666 107.621L136.373 108.539L139.358 109.577L142.635 110.748L146.21 112.063L150.083 113.532L154.245 115.163L158.671 116.96L163.325 118.921L168.151 121.038L173.073 123.294L177.997 125.663L182.808 128.109L187.375 130.584L191.557 133.032L195.207 135.387L198.186 137.58L200.369 139.54L201.659 141.203L201.994 142.513L201.352 143.427L199.755 143.921L197.267 143.989L193.987 143.644L190.041 142.917L185.573 141.852L180.733 140.502L175.667 138.926L170.509 137.185L165.377 135.336L160.368 133.431L155.559 131.516L151.005 129.629L146.742 127.799L142.791 126.049L139.161 124.395L135.848 122.846L132.843 121.408L130.131 120.083L127.692 118.869L125.507 117.764L123.555 116.762L121.815 115.857L120.267 115.045L118.892 114.319L117.674 113.673L116.596 113.101L115.643 112.599L114.804 112.16L114.067 111.782L113.421 111.459L112.858 111.19L112.371 110.97L111.952 110.798L111.596 110.672L111.298 110.59L111.054 110.553L110.861 110.559L110.716 110.609L110.618 110.704L110.564 110.844L110.555 111.033L110.589 111.273L110.667 111.567L110.789 111.918L110.958 112.332L111.174 112.813L111.439 113.37L111.757 114.009L112.131 114.739L112.565 115.569L113.062 116.512L113.628 117.58L114.268 118.786L114.988 120.148L115.793 121.681L116.689 123.405L117.684 125.34L118.781 127.506L119.986 129.923L121.302 132.613L122.731 135.595L124.271 138.882L125.917 142.487L127.66 146.412L129.484 150.651L131.368 155.183L133.282 159.974L135.189 164.969L137.044 170.094L138.796 175.254L140.387 180.333L141.757 185.196L142.847 189.699L143.603 193.692L143.979 197.03L143.945 199.586L143.485 201.256L142.604 201.976L141.324 201.718L139.688 200.502L137.748 198.387L135.572 195.467L133.227 191.866L130.785 187.721L128.309 183.179L125.859 178.383L123.482 173.463L121.216 168.537L119.087 163.701L117.113 159.031L115.303 154.585L113.659 150.401L112.177 146.504L110.85 142.905L109.668 139.605L108.62 136.597L107.693 133.869L106.876 131.406L106.156 129.191L105.523 127.205L104.966 125.43L104.475 123.848L104.042 122.441L103.66 121.194L103.321 120.093L103.019 119.123L102.75 118.274L102.508 117.534L102.29 116.894L102.091 116.347L101.909 115.886L101.74 115.504L101.583 115.197L101.433 114.961L101.29 114.793L101.151 114.691L101.014 114.654L100.877 114.681L100.739 114.772L100.596 114.929L100.448 115.154L100.292 115.45L100.125 115.82L99.9448 116.268L99.7489 116.801L99.534 117.425L99.2963 118.149L99.0318 118.98L98.7358 119.93L98.4033 121.009L98.0283 122.232L97.604 123.612L97.123 125.165L96.5769 126.909L95.9564 128.86L95.2511 131.037L94.4501 133.459L93.5417 136.144L92.5136 139.106L91.3537 142.36L90.0505 145.911L88.5937 149.761L86.9756 153.9L85.1921 158.306L83.2442 162.944L81.1393 167.759L78.8934 172.676L76.5318 177.604L74.0903 182.429L71.6153 187.021L69.1633 191.238L66.7985 194.936L64.5904 197.973L62.6088 200.223L60.9199 201.588L59.5805 202L58.6337 201.436L58.1059 199.913L58.0042 197.493L58.3168 194.271L59.0148 190.373L60.0551 185.941L61.3845 181.125L62.9442 176.072L64.6744 170.917L66.517 165.779L68.4191 160.757L70.3348 155.93L72.2256 151.354L74.061 147.067L75.818 143.091L77.4803 139.435L79.0376 136.097L80.4842 133.068L81.8182 130.333L83.0407 127.873L84.1549 125.669L85.1651 123.699L86.077 121.943L86.8962 120.38L87.6291 118.992L88.2813 117.762L88.8588 116.673L89.3667 115.712L89.81 114.864L90.1931 114.119L90.5199 113.466L90.7936 112.897L91.0172 112.404L91.193 111.979L91.3228 111.618L91.4078 111.316L91.4488 111.068L91.4462 110.871L91.3997 110.723L91.3085 110.621L91.1714 110.564L90.9863 110.551L90.7508 110.581L90.4618 110.656L90.1153 110.775L89.7067 110.939L89.2304 111.151L88.6801 111.413L88.0481 111.727L87.326 112.096L86.5038 112.525L85.5704 113.017L84.5131 113.577L83.3181 114.211L81.9695 114.924L80.4504 115.722L78.7422 116.611L76.8251 117.597L74.6786 118.686L72.2818 119.883L69.6141 121.19L66.6567 122.61L63.3939 124.141L59.8145 125.779L55.9148 127.514L51.7007 129.333L47.1907 131.213L42.4189 133.126L37.4375 135.035L32.3193 136.896L27.1582 138.659L22.0686 140.264L17.1829 141.654L12.6457 142.769L8.60681 143.553L5.21142 143.961L2.58953 143.96L0.845464 143.534L0.0488941 142.686L0.228598 141.437L1.37 139.826L3.41682 137.909L6.2765 135.749L9.82867 133.415L13.9352 130.978L18.4507 128.503L23.232 126.049L28.1461 123.664L33.0757 121.388L37.9223 119.248L42.6078 117.261L47.0735 115.438L51.2789 113.781L55.1991 112.286L58.8221 110.947L62.1462 109.754L65.1773 108.695L67.9268 107.76L70.4101 106.934L72.6442 106.207L74.6477 105.567L76.439 105.004L78.036 104.508L79.456 104.071L80.715 103.685L81.8276 103.343L82.8072 103.039L83.6658 102.767L84.414 102.523L85.0611 102.303L85.6153 102.103L86.0835 101.92L86.4716 101.75L86.7844 101.592L87.026 101.442L87.1992 101.298L87.3064 101.159L87.3487 101.022L87.3268 100.885L87.2404 100.746L87.0884 100.604L86.8689 100.457L86.5792 100.301L86.2155 100.135L85.7735 99.9563L85.2474 99.7619L84.6307 99.5486L83.9156 99.3128L83.0933 99.0506L82.1535 98.7574L81.0846 98.428L79.8738 98.0565L78.5068 97.6364L76.9679 97.1603L75.2404 96.6197L73.3066 96.0054L71.1479 95.3073L68.7459 94.5144L66.083 93.615L63.143 92.5968L59.9132 91.4479L56.3857 90.1565L52.5594 88.7122L48.4428 87.1072L44.0564 85.3369L39.4355 83.4019L34.6326 81.3091L29.7198 79.0736L24.7888 76.72L19.9514 74.2833L15.3361 71.8091L11.0834 69.3529L7.33915 66.9787L4.24476 64.7555L1.92746 62.7534L0.489677 61.0389L0 59.6699L0.486664 58.6907L1.93462 58.129L4.28673 57.9935L7.44883 58.274L11.298 58.9428L15.6927 59.9576L20.4835 61.2661L25.5232 62.8097L30.6749 64.5284L35.818 66.3641L40.8518 68.2633L45.697 70.1794L50.295 72.0734L54.606 73.9141L58.607 75.678L62.2884 77.3484L65.6512 78.9143L68.7043 80.3698L71.4624 81.7128L73.9433 82.9441L76.1673 84.0667L78.1552 85.085L79.9277 86.0045L81.505 86.8309L82.9059 87.5704L84.1481 88.2289L85.2477 88.8121L86.2191 89.3254L87.0754 89.7737L87.8283 90.1614L88.488 90.4925L89.0635 90.7704L89.5626 90.9979L89.9921 91.1774L90.3579 91.3108L90.6647 91.3993L90.9169 91.4439L91.1177 91.4447L91.2699 91.4017L91.3756 91.3141L91.4362 91.1807L91.4528 90.9995L91.4256 90.7682L91.3547 90.4836L91.2393 90.1418L91.0783 89.7383L90.8702 89.2677L90.6127 88.7235L90.3031 88.0983L89.9384 87.3837L89.5147 86.5699L89.0279 85.6457L88.4731 84.5989L87.8453 83.4153L87.1388 82.0796L86.3477 80.5747L85.466 78.8823L84.4877 76.9826L83.4072 74.8551L82.2196 72.479L80.9213 69.8336L79.5106 66.8999L77.9881 63.6619L76.3583 60.108L74.63 56.2337L72.8175 52.0442L70.9414 47.5567L69.0299 42.804L67.1187 37.837L65.2517 32.7265L63.4797 27.5649L61.8592 22.465L60.4499 17.5578L59.3114 12.9874L58.4992 8.90339L58.0599 5.45172L58.0275 2.76401L58.4194 0.946982L59.2347 0.0733407L60.4529 0.175263L62.0362 1.24162L63.9313 3.2193L66.0748 6.01836L68.3973 9.52028L70.8289 13.588L73.3031 18.0762L75.7608 22.8414L78.1522 27.7495L80.4382 32.6817L82.5901 37.5381L84.5893 42.2388L86.4256 46.7237L88.0961 50.951L89.6035 54.8945L90.9547 58.5413L92.159 61.889L93.2278 64.9431L94.173 67.7145L95.0069 70.2184L95.7414 72.4717L96.3878 74.4929L96.9566 76.3004L97.4573 77.9122L97.8988 79.3457L98.2888 80.617L98.6342 81.7407L98.9411 82.7305L99.2151 83.5983L99.4609 84.3549L99.6827 85.0098L99.8843 85.5711L100.069 86.0459L100.24 86.4402L100.399 86.7589L100.55 87.0059L100.694 87.1846L100.833 87.2969L100.97 87.3444L101.107 87.3276L101.245 87.2464L101.387 87.0997L101.534 86.8856L101.689 86.6016L101.854 86.244L102.032 85.8084L102.225 85.2892L102.437 84.68L102.67 83.9731L102.93 83.1597L103.221 82.2296L103.547 81.1714L103.915 79.9724L104.331 78.6184L104.802 77.0938L105.338 75.382L105.946 73.4652L106.637 71.3251L107.422 68.9432L108.312 66.3017L109.32 63.3843L110.458 60.178L111.738 56.6743L113.17 52.8716L114.762 48.7775L116.519 44.4115L118.441 39.8076L120.522 35.0169L122.747 30.1097L125.092 25.1763L127.523 20.327L129.997 15.6889L132.456 11.4021L134.84 7.61199L137.078 4.46093L139.1 2.07761L140.839 0.566773L142.238 0L143.249 0.408892L143.845 1.78186L144.014 4.06498L143.766 7.16676L143.127 10.9662L142.138 15.3229L140.85 20.0877L139.323 25.1128L137.616 30.2602L135.788 35.4079L133.892 40.4537L131.976 45.3163L130.079 49.9356L128.233 54.2706L126.462 58.2968L124.784 62.0037L123.209 65.3916L121.745 68.4689L120.393 71.2498L119.153 73.7521L118.022 75.9958L116.995 78.0017L116.068 79.7907L115.234 81.3828L114.488 82.7971L113.824 84.0513L113.235 85.1617L112.716 86.1428L112.263 87.0079L111.87 87.7686L111.535 88.4354L111.253 89.0173L111.021 89.5222L110.838 89.957L110.701 90.3277L110.609 90.639L110.561 90.8954L110.557 91.1002L110.596 91.2562L110.68 91.3655L110.81 91.4297L110.987 91.4497L111.214 91.4261L111.495 91.3586L111.832 91.2468L112.23 91.0895L112.695 90.8852L113.233 90.6317L113.852 90.3265L114.559 89.9662L115.364 89.5474L116.279 89.0657L117.316 88.5166L118.488 87.8948L119.811 87.1947L121.302 86.4106L122.979 85.5363L124.861 84.566L126.969 83.4938L129.325 82.3149L131.948 81.0255L134.858 79.6237L138.072 78.1101L141.6 76.4886L145.449 74.7677L149.614 72.9612L154.079 71.0892L158.812 69.1793L163.764 67.2666L168.866 65.3943L174.028 63.6127L179.137 61.978L184.065 60.5496L188.667 59.3875L192.796 58.5474L196.303 58.077L199.056 58.0113L200.945 58.3692L201.896 59.1513L201.871 60.3386L200.881 61.8946L198.973 63.7671L196.235 65.8933L192.784 68.2042L188.756 70.6295L184.296 73.1026L179.548 75.5636L174.647 77.9619L169.712 80.2575L164.847 82.4209L160.131 84.4326L155.627 86.2821L151.378 87.9658L147.412 89.486L143.741 90.8493L140.37 92.0649L137.292 93.1441L134.499 94.0987L131.974 94.941L129.702 95.683L127.663 96.336L125.839 96.9106L124.212 97.4164L122.765 97.8623L121.482 98.2561L120.347 98.6048L119.347 98.9147L118.469 99.1911L117.704 99.439L117.042 99.6625L116.473 99.8656L115.992 100.051L115.591 100.223L115.267 100.383L115.014 100.535L114.83 100.679L114.713 100.819L114.66 100.956L114.657 101Z" fill="url(#paint0_radial_216_356)"/>
<path fill-rule="evenodd" clip-rule="evenodd" d="M110.104 101L110.125 101.091L110.19 101.184L110.298 101.279L110.452 101.378L110.653 101.483L110.903 101.595L111.207 101.715L111.567 101.847L111.988 101.991L112.475 102.151L113.036 102.329L113.675 102.528L114.402 102.752L115.226 103.004L116.154 103.29L117.2 103.614L118.372 103.982L119.685 104.4L121.149 104.875L122.777 105.414L124.581 106.026L126.571 106.718L128.756 107.498L131.139 108.375L133.722 109.355L136.496 110.442L139.447 111.64L142.549 112.947L145.767 114.358L149.048 115.863L152.331 117.442L155.538 119.073L158.583 120.723L161.371 122.355L163.804 123.925L165.79 125.386L167.245 126.693L168.105 127.802L168.329 128.675L167.901 129.285L166.836 129.614L165.177 129.659L162.991 129.429L160.36 128.945L157.381 128.235L154.155 127.335L150.777 126.284L147.339 125.124L143.917 123.891L140.578 122.621L137.372 121.344L134.336 120.086L131.494 118.866L128.86 117.699L126.44 116.596L124.232 115.564L122.228 114.606L120.42 113.722L118.794 112.913L117.337 112.176L116.036 111.508L114.876 110.905L113.844 110.364L112.927 109.879L112.115 109.449L111.396 109.068L110.762 108.732L110.202 108.44L109.711 108.188L109.28 107.973L108.905 107.793L108.58 107.647L108.3 107.532L108.063 107.448L107.865 107.394L107.702 107.369L107.573 107.373L107.477 107.406L107.411 107.469L107.376 107.563L107.369 107.689L107.392 107.849L107.444 108.044L107.526 108.279L107.638 108.554L107.782 108.876L107.959 109.247L108.171 109.673L108.42 110.159L108.709 110.713L109.041 111.341L109.418 112.053L109.845 112.858L110.324 113.765L110.861 114.788L111.459 115.937L112.122 117.227L112.853 118.671L113.657 120.282L114.534 122.076L115.486 124.063L116.513 126.255L117.611 128.658L118.772 131.275L119.989 134.101L121.244 137.122L122.521 140.316L123.792 143.646L125.029 147.063L126.197 150.503L127.257 153.889L128.171 157.131L128.898 160.133L129.401 162.795L129.652 165.02L129.629 166.724L129.323 167.838L128.735 168.317L127.882 168.146L126.791 167.335L125.498 165.925L124.047 163.978L122.484 161.577L120.856 158.814L119.205 155.786L117.572 152.589L115.987 149.309L114.476 146.025L113.057 142.801L111.742 139.687L110.535 136.723L109.439 133.934L108.451 131.336L107.566 128.937L106.778 126.737L106.079 124.731L105.462 122.913L104.917 121.271L104.437 119.794L104.015 118.47L103.643 117.287L103.316 116.232L103.027 115.294L102.772 114.463L102.547 113.728L102.346 113.082L102.166 112.516L102.005 112.023L101.859 111.596L101.727 111.232L101.605 110.924L101.493 110.669L101.388 110.465L101.288 110.307L101.193 110.195L101.1 110.127L101.009 110.102L100.917 110.12L100.825 110.182L100.73 110.286L100.631 110.436L100.527 110.633L100.416 110.88L100.296 111.179L100.165 111.534L100.022 111.95L99.8635 112.433L99.6872 112.987L99.4899 113.62L99.2682 114.34L99.0182 115.155L98.7353 116.075L98.4147 117.11L98.0506 118.273L97.6369 119.573L97.1668 121.025L96.6328 122.64L96.0271 124.429L95.3418 126.404L94.5685 128.573L93.6997 130.941L92.7285 133.507L91.6498 136.267L90.4608 139.204L89.1621 142.296L87.7589 145.506L86.2616 148.784L84.6872 152.07L83.0596 155.286L81.4096 158.347L79.7749 161.159L78.1984 163.624L76.7263 165.649L75.4052 167.149L74.2793 168.058L73.3863 168.333L72.7552 167.957L72.4033 166.942L72.3355 165.328L72.5439 163.181L73.0092 160.582L73.7027 157.628L74.589 154.417L75.6288 151.048L76.7823 147.611L78.0107 144.186L79.2788 140.838L80.5559 137.62L81.8164 134.569L83.04 131.711L84.2113 129.061L85.3196 126.623L86.3578 124.398L87.3221 122.379L88.2115 120.555L89.0265 118.916L89.7693 117.446L90.4428 116.133L91.0507 114.962L91.5968 113.92L92.0854 112.995L92.5202 112.175L92.9052 111.449L93.2438 110.808L93.5394 110.243L93.7948 109.746L94.0126 109.311L94.1951 108.931L94.3442 108.602L94.4614 108.32L94.5479 108.079L94.6045 107.877L94.6319 107.712L94.6302 107.581L94.5992 107.482L94.5384 107.414L94.4469 107.376L94.3235 107.367L94.1666 107.388L93.9739 107.437L93.7429 107.517L93.4705 107.626L93.153 107.768L92.7861 107.942L92.3648 108.151L91.8833 108.397L91.3352 108.683L90.7129 109.011L90.0081 109.385L89.2114 109.807L88.3124 110.283L87.2996 110.815L86.1608 111.408L84.8828 112.065L83.4518 112.791L81.8539 113.588L80.0754 114.46L78.1038 115.406L75.9286 116.427L73.5424 117.519L70.9426 118.676L68.1332 119.889L65.1265 121.142L61.9453 122.417L58.6244 123.69L55.2122 124.931L51.7715 126.106L48.3784 127.176L45.1213 128.103L42.0965 128.846L39.4039 129.369L37.1403 129.641L35.3924 129.64L34.2297 129.356L33.6986 128.79L33.8184 127.958L34.5793 126.884L35.9439 125.606L37.8504 124.166L40.2185 122.61L42.9562 120.985L45.9665 119.335L49.154 117.699L52.4301 116.11L55.7165 114.592L58.9476 113.165L62.0712 111.841L65.0484 110.626L67.852 109.521L70.4654 108.524L72.8808 107.631L75.0968 106.836L77.1175 106.13L78.9506 105.506L80.6061 104.956L82.0955 104.471L83.4312 104.045L84.6253 103.669L85.69 103.339L86.6367 103.048L87.476 102.79L88.2178 102.562L88.8708 102.359L89.4432 102.178L89.942 102.016L90.3734 101.869L90.7429 101.736L91.055 101.613L91.3137 101.5L91.5223 101.394L91.6833 101.294L91.7988 101.199L91.8703 101.106L91.8985 101.014L91.8839 100.923L91.8263 100.831L91.725 100.736L91.5786 100.638L91.3855 100.534L91.1431 100.423L90.8483 100.304L90.4976 100.175L90.0865 100.032L89.6098 99.8753L89.0616 99.7005L88.435 99.505L87.7224 99.2854L86.9152 99.0378L86.0039 98.7577L84.978 98.4403L83.8263 98.0799L82.5371 97.6704L81.0979 97.205L79.4966 96.6763L77.7213 96.0767L75.7614 95.398L73.6082 94.632L71.2565 93.771L68.7056 92.8082L65.9612 91.7382L63.0369 90.558L59.9563 89.268L56.7544 87.8728L53.4792 86.3825L50.1919 84.8134L46.967 83.189L43.8901 81.5395L41.055 79.902L38.5588 78.3192L36.4959 76.8371L34.951 75.5024L33.9925 74.3594L33.666 73.4467L33.9905 72.7939L34.9558 72.4194L36.5238 72.3291L38.6319 72.5161L41.198 72.9619L44.1278 73.6385L47.3217 74.5108L50.6815 75.5399L54.116 76.6857L57.5447 77.9095L60.9006 79.1756L64.1307 80.453L67.196 81.7157L70.07 82.9428L72.7374 84.1188L75.1916 85.2323L77.4335 86.2763L79.4689 87.2466L81.3076 88.1419L82.9616 88.9628L84.4442 89.7112L85.7695 90.3901L86.9512 91.0031L88.0027 91.554L88.9366 92.047L89.7648 92.486L90.4978 92.8748L91.1454 93.217L91.7163 93.5159L92.2182 93.7744L92.658 93.9951L93.0417 94.1803L93.3744 94.332L93.6608 94.4517L93.9046 94.5406L94.1092 94.5996L94.2773 94.6293L94.4112 94.6299L94.5126 94.6012L94.5831 94.5428L94.6235 94.4539L94.6345 94.3331L94.6164 94.1789L94.5691 93.9891L94.4922 93.7613L94.3849 93.4923L94.2461 93.1785L94.0745 92.8157L93.8681 92.399L93.6249 91.9225L93.3425 91.38L93.0179 90.7639L92.6481 90.066L92.2295 89.277L91.7585 88.3865L91.2311 87.3832L90.6433 86.2549L89.9911 84.9885L89.2708 83.5702L88.4791 81.9861L87.6136 80.2225L86.6731 78.2667L85.6581 76.108L84.5716 73.7387L83.4194 71.1559L82.211 68.3629L80.9603 65.3712L79.6859 62.2028L78.4118 58.8914L77.1672 55.4844L75.9858 52.0433L74.9055 48.6434L73.9659 45.372L73.207 42.325L72.6655 39.6023L72.3726 37.3012L72.351 35.5094L72.6123 34.2981L73.1558 33.7156L73.968 33.7836L75.0235 34.4945L76.2869 35.8129L77.7159 37.679L79.2642 40.0136L80.8853 42.7254L82.5347 45.7176L84.1732 48.8944L85.7675 52.1664L87.2915 55.4545L88.7261 58.6921L90.0589 61.8259L91.2831 64.8159L92.3967 67.634L93.4017 70.2631L94.3025 72.6943L95.1054 74.9261L95.8179 76.9621L96.448 78.8098L97.004 80.479L97.4936 81.9812L97.9245 83.3287L98.3037 84.5337L98.6376 85.6082L98.9319 86.5639L99.1919 87.4114L99.4221 88.1606L99.6268 88.8204L99.8094 89.399L99.9733 89.9034L100.121 90.34L100.256 90.7141L100.379 91.0307L100.492 91.2935L100.599 91.506L100.699 91.6707L100.795 91.7898L100.888 91.8647L100.98 91.8963L101.071 91.8852L101.163 91.831L101.257 91.7332L101.355 91.5905L101.459 91.4011L101.569 91.1628L101.687 90.8723L101.816 90.5262L101.957 90.1201L102.113 89.6488L102.286 89.1065L102.48 88.4865L102.698 87.781L102.943 86.9817L103.22 86.079L103.534 85.0626L103.891 83.9214L104.296 82.6436L104.757 81.2168L105.28 79.6289L105.874 77.8679L106.546 75.9229L107.305 73.7854L108.158 71.4496L109.113 68.9145L110.174 66.1851L111.345 63.2744L112.627 60.2052L114.014 57.0113L115.497 53.7399L117.061 50.451L118.682 47.2181L120.33 44.126L121.97 41.2681L123.559 38.7414L125.051 36.6407L126.399 35.0518L127.559 34.0446L128.491 33.6667L129.166 33.9393L129.563 34.8547L129.675 36.3767L129.51 38.4446L129.084 40.9776L128.424 43.882L127.566 47.0585L126.548 50.4086L125.41 53.8402L124.191 57.272L122.927 60.6359L121.65 63.8776L120.385 66.9572L119.155 69.8471L117.974 72.5313L116.855 75.0025L115.806 77.2612L114.829 79.3127L113.928 81.1666L113.101 82.8348L112.347 84.3306L111.663 85.6679L111.045 86.8605L110.489 87.9219L109.992 88.8648L109.548 89.701L109.156 90.4412L108.81 91.0953L108.508 91.672L108.246 92.1792L108.023 92.6237L107.835 93.0116L107.68 93.3482L107.558 93.6381L107.467 93.8852L107.405 94.0928L107.373 94.2637L107.37 94.4002L107.397 94.5042L107.453 94.5771L107.539 94.6199L107.657 94.6332L107.809 94.6175L107.996 94.5725L108.22 94.498L108.486 94.3931L108.796 94.2569L109.155 94.0879L109.567 93.8844L110.039 93.6442L110.576 93.365L111.186 93.0439L111.877 92.6778L112.658 92.2633L113.54 91.7966L114.534 91.2738L115.652 90.691L116.907 90.0441L118.312 89.3293L119.883 88.5434L121.632 87.6838L123.572 86.7492L125.714 85.7401L128.066 84.6591L130.632 83.5119L133.409 82.3075L136.385 81.0595L139.541 79.7863L142.842 78.5112L146.243 77.263L149.684 76.0752L153.091 74.9854L156.376 74.0332L159.444 73.2584L162.196 72.6984L164.534 72.3847L166.37 72.3409L167.629 72.5796L168.263 73.1009L168.247 73.8925L167.586 74.9298L166.314 76.1781L164.489 77.5956L162.189 79.1362L159.503 80.7531L156.53 82.4018L153.365 84.0425L150.097 85.6414L146.808 87.1717L143.564 88.614L140.42 89.9552L137.418 91.1881L134.585 92.3106L131.94 93.3241L129.493 94.2329L127.246 95.0434L125.194 95.7628L123.332 96.3992L121.649 96.9608L120.134 97.4554L118.775 97.8907L117.559 98.2738L116.474 98.611L115.509 98.9083L114.654 99.1708L113.897 99.4033L113.23 99.6099L112.646 99.7941L112.136 99.9594L111.694 100.108L111.315 100.244L110.994 100.368L110.727 100.482L110.511 100.589L110.342 100.69L110.219 100.786L110.141 100.879L110.106 100.971L110.104 101Z" fill="url(#paint1_radial_216_356)"/>
<path fill-rule="evenodd" clip-rule="evenodd" d="M105.55 101L105.561 101.045L105.593 101.092L105.647 101.139L105.724 101.189L105.824 101.241L105.95 101.297L106.101 101.358L106.281 101.423L106.492 101.496L106.736 101.575L107.016 101.664L107.336 101.764L107.699 101.876L108.111 102.002L108.575 102.145L109.098 102.307L109.684 102.491L110.34 102.7L111.072 102.937L111.887 103.207L112.789 103.513L113.784 103.859L114.876 104.249L116.068 104.687L117.359 105.177L118.746 105.721L120.221 106.32L121.773 106.974L123.381 107.679L125.022 108.431L126.663 109.221L128.267 110.036L129.79 110.861L131.183 111.677L132.4 112.462L133.393 113.193L134.121 113.847L134.551 114.401L134.662 114.837L134.448 115.142L133.916 115.307L133.087 115.329L131.993 115.215L130.678 114.972L129.189 114.617L127.575 114.167L125.887 113.642L124.167 113.062L122.457 112.445L120.787 111.81L119.184 111.172L117.666 110.543L116.245 109.933L114.928 109.35L113.718 108.798L112.614 108.282L111.612 107.803L110.708 107.361L109.895 106.956L109.167 106.588L108.516 106.254L107.936 105.952L107.42 105.682L106.962 105.44L106.556 105.224L106.196 105.034L105.879 104.866L105.599 104.72L105.353 104.594L105.138 104.486L104.95 104.396L104.788 104.323L104.648 104.266L104.53 104.224L104.43 104.197L104.349 104.184L104.285 104.186L104.237 104.203L104.204 104.234L104.186 104.281L104.183 104.344L104.194 104.424L104.22 104.522L104.261 104.639L104.317 104.777L104.389 104.938L104.477 105.123L104.584 105.336L104.708 105.579L104.853 105.856L105.018 106.171L105.207 106.526L105.42 106.929L105.66 107.383L105.929 107.894L106.228 108.468L106.559 109.113L106.925 109.835L107.326 110.641L107.765 111.538L108.241 112.531L108.755 113.627L109.303 114.829L109.884 116.137L110.492 117.55L111.12 119.061L111.758 120.658L112.394 122.323L113.013 124.031L113.596 125.751L114.127 127.444L114.583 129.065L114.947 130.566L115.199 131.897L115.324 133.01L115.313 133.862L115.159 134.419L114.866 134.658L114.439 134.573L113.894 134.167L113.247 133.462L112.522 132.489L111.74 131.288L110.926 129.907L110.101 128.393L109.284 126.794L108.492 125.154L107.736 123.512L107.027 121.9L106.369 120.344L105.766 118.861L105.217 117.467L104.723 116.168L104.281 114.968L103.887 113.868L103.538 112.865L103.229 111.956L102.956 111.135L102.716 110.397L102.505 109.735L102.32 109.143L102.156 108.616L102.012 108.147L101.884 107.731L101.771 107.364L101.671 107.041L101.581 106.758L101.501 106.511L101.428 106.298L101.362 106.116L101.301 105.962L101.245 105.834L101.192 105.732L101.142 105.653L101.094 105.597L101.048 105.564L101.002 105.551L100.957 105.56L100.911 105.591L100.863 105.643L100.814 105.718L100.762 105.817L100.706 105.94L100.646 106.089L100.581 106.267L100.509 106.475L100.43 106.716L100.342 106.993L100.243 107.31L100.132 107.67L100.007 108.077L99.8657 108.537L99.7054 109.055L99.5234 109.636L99.3165 110.286L99.0814 111.012L98.8144 111.82L98.5116 112.714L98.1689 113.702L97.7823 114.786L97.3479 115.97L96.8623 117.254L96.3229 118.633L95.7284 120.102L95.0791 121.648L94.3775 123.253L93.6289 124.892L92.8417 126.535L92.0278 128.143L91.2028 129.673L90.3855 131.079L89.5972 132.312L88.8612 133.324L88.2007 134.074L87.6377 134.529L87.1912 134.667L86.8756 134.478L86.6997 133.971L86.6658 133.164L86.77 132.09L87.0027 130.791L87.3494 129.314L87.7925 127.708L88.3125 126.024L88.8892 124.305L89.5034 122.593L90.1374 120.919L90.776 119.31L91.4063 117.784L92.018 116.355L92.6037 115.03L93.1578 113.812L93.6769 112.699L94.1591 111.689L94.6038 110.778L95.0113 109.958L95.3827 109.223L95.7194 108.566L96.0234 107.981L96.2965 107.46L96.5407 106.997L96.7582 106.587L96.9506 106.224L97.12 105.904L97.2677 105.621L97.3954 105.373L97.5043 105.155L97.5956 104.966L97.6701 104.801L97.7287 104.66L97.772 104.539L97.8003 104.439L97.814 104.356L97.8131 104.29L97.7976 104.241L97.7672 104.207L97.7215 104.188L97.6598 104.183L97.5813 104.194L97.485 104.219L97.3695 104.258L97.2333 104.313L97.0745 104.384L96.8911 104.471L96.6804 104.575L96.4397 104.699L96.1656 104.841L95.8545 105.005L95.5021 105.192L95.1037 105.404L94.6542 105.641L94.1479 105.907L93.5784 106.204L92.9394 106.532L92.2239 106.895L91.425 107.294L90.5358 107.73L89.55 108.203L88.4623 108.713L87.2692 109.259L85.9693 109.838L84.5646 110.444L83.0613 111.071L81.4707 111.709L79.8102 112.345L78.1042 112.965L76.3838 113.553L74.6873 114.088L73.0587 114.551L71.5463 114.923L70.2 115.184L69.0682 115.32L68.1942 115.32L67.6129 115.178L67.3474 114.895L67.4073 114.479L67.7877 113.942L68.47 113.303L69.4232 112.583L70.6073 111.805L71.9761 110.992L73.4813 110.168L75.0751 109.349L76.7131 108.555L78.3563 107.796L79.9718 107.083L81.5337 106.42L83.0222 105.813L84.424 105.26L85.7308 104.762L86.9384 104.316L88.0465 103.918L89.0568 103.565L89.9733 103.253L90.8011 102.978L91.5458 102.736L92.2136 102.522L92.8107 102.335L93.3431 102.169L93.8164 102.024L94.236 101.895L94.6069 101.781L94.9335 101.68L95.2197 101.589L95.4691 101.508L95.6848 101.434L95.8695 101.368L96.0256 101.307L96.1549 101.25L96.2592 101.197L96.3397 101.147L96.3975 101.099L96.4332 101.053L96.4473 101.007L96.44 100.962L96.4112 100.915L96.3605 100.868L96.2874 100.819L96.1908 100.767L96.0696 100.712L95.9222 100.652L95.7469 100.587L95.5413 100.516L95.3029 100.438L95.0288 100.35L94.7155 100.252L94.3593 100.143L93.9557 100.019L93.5 99.8787L92.987 99.72L92.4112 99.5398L91.7666 99.3351L91.047 99.1024L90.2464 98.8381L89.3587 98.5382L88.3787 98.1989L87.3021 97.8159L86.1263 97.3854L84.8509 96.904L83.4787 96.369L82.0165 95.7789L80.4762 95.1339L78.8753 94.4363L77.2376 93.6911L75.594 92.9066L73.9815 92.0944L72.4431 91.2696L71.0255 90.4509L69.7774 89.6595L68.746 88.9184L67.9735 88.2511L67.4943 87.6796L67.3311 87.2232L67.4933 86.8968L67.9759 86.7096L68.76 86.6644L69.814 86.7579L71.097 86.9808L72.5619 87.3191L74.1589 87.7553L75.8388 88.2698L77.556 88.8427L79.2704 89.4546L80.9483 90.0877L82.5634 90.7264L84.096 91.3577L85.5331 91.9713L86.8667 92.5593L88.0939 93.116L89.2148 93.638L90.2325 94.1232L91.1518 94.5709L91.9788 94.9813L92.7202 95.3555L93.3828 95.6949L93.9736 96.0014L94.4994 96.2769L94.9664 96.5234L95.3804 96.7429L95.747 96.9373L96.0708 97.1084L96.3562 97.2578L96.6072 97.3871L96.8271 97.4974L97.0189 97.59L97.1853 97.6659L97.3284 97.7257L97.4503 97.7702L97.5526 97.7997L97.6367 97.8145L97.7036 97.8148L97.7544 97.8005L97.7896 97.7713L97.8098 97.7268L97.8153 97.6664L97.8063 97.5893L97.7826 97.4944L97.7441 97.3805L97.6905 97.246L97.6211 97.0891L97.5353 96.9077L97.4321 96.6994L97.3105 96.4612L97.1693 96.1899L97.007 95.8818L96.8221 95.5329L96.6128 95.1384L96.3773 94.6931L96.1136 94.1915L95.8197 93.6273L95.4936 92.9941L95.1335 92.285L94.7376 91.4929L94.3048 90.6111L93.8346 89.6332L93.3271 88.5539L92.7838 87.3692L92.2077 86.0778L91.6035 84.6813L90.9782 83.1855L90.341 81.6013L89.704 79.9456L89.0816 78.2421L88.491 76.5215L87.9508 74.8216L87.481 73.1859L87.1015 71.6624L86.8308 70.301L86.6843 69.1505L86.6735 68.2546L86.8042 67.6489L87.0759 67.3577L87.482 67.3917L88.0098 67.7471L88.6415 68.4064L89.356 69.3394L90.1302 70.5067L90.9407 71.8626L91.7654 73.3587L92.5847 74.9471L93.3818 76.5831L94.1438 78.2271L94.8611 79.8459L95.5275 81.4128L96.1396 82.9078L96.6964 84.3169L97.1989 85.6314L97.6493 86.847L98.0507 87.9629L98.407 88.9809L98.7221 89.9048L99 90.7394L99.2449 91.4905L99.4603 92.1642L99.6499 92.7667L99.8168 93.304L99.964 93.7818L100.094 94.2056L100.209 94.5802L100.311 94.9101L100.403 95.1994L100.485 95.4516L100.559 95.6699L100.626 95.857L100.687 96.0152L100.744 96.1466L100.797 96.2529L100.848 96.3352L100.896 96.3948L100.942 96.4322L100.988 96.4481L101.033 96.4425L101.08 96.4154L101.127 96.3665L101.176 96.2951L101.227 96.2005L101.282 96.0813L101.342 95.936L101.406 95.763L101.477 95.5599L101.555 95.3243L101.641 95.0531L101.738 94.7431L101.847 94.3904L101.969 93.9907L102.108 93.5394L102.265 93.0312L102.444 92.4606L102.646 91.8217L102.877 91.1083L103.138 90.3143L103.435 89.4338L103.771 88.4614L104.151 87.3926L104.577 86.2247L105.054 84.9571L105.585 83.5924L106.171 82.1371L106.811 80.6025L107.505 79.0055L108.247 77.3698L109.028 75.7254L109.839 74.1089L110.663 72.5629L111.483 71.1339L112.278 69.8706L113.024 68.8202L113.698 68.0258L114.278 67.5222L114.744 67.3333L115.081 67.4695L115.279 67.9272L115.336 68.6882L115.253 69.7222L115.04 70.9887L114.71 72.4409L114.281 74.0291L113.772 75.7042L113.203 77.42L112.594 79.1359L111.962 80.8178L111.323 82.4387L110.691 83.9785L110.075 85.4234L109.485 86.7655L108.926 88.0012L108.401 89.1305L107.913 90.1562L107.462 91.0832L107.049 91.9173L106.672 92.6652L106.329 93.3338L106.02 93.9301L105.743 94.4608L105.494 94.9323L105.272 95.3504L105.076 95.7205L104.903 96.0475L104.752 96.3359L104.621 96.5895L104.509 96.8117L104.415 97.0057L104.338 97.174L104.277 97.3189L104.231 97.4425L104.201 97.5463L104.185 97.6317L104.183 97.7L104.196 97.752L104.224 97.7884L104.268 97.8098L104.327 97.8165L104.403 97.8086L104.496 97.7861L104.608 97.7489L104.741 97.6964L104.896 97.6283L105.075 97.5438L105.282 97.4421L105.517 97.322L105.786 97.1824L106.091 97.0218L106.436 96.8388L106.827 96.6315L107.268 96.3982L107.765 96.1368L108.324 95.8454L108.951 95.5219L109.654 95.1645L110.439 94.7716L111.314 94.3418L112.284 93.8745L113.355 93.3699L114.531 92.8294L115.814 92.2558L117.202 91.6536L118.691 91.0297L120.268 90.393L121.919 89.7555L123.62 89.1314L125.34 88.5375L127.043 87.9926L128.686 87.5165L130.22 87.1291L131.596 86.8491L132.765 86.6922L133.683 86.6703L134.313 86.7897L134.63 87.0503L134.622 87.4461L134.291 87.9648L133.655 88.5889L132.743 89.2977L131.592 90.068L130.25 90.8764L128.763 91.7008L127.18 92.5211L125.547 93.3206L123.902 94.0857L122.28 94.8069L120.708 95.4775L119.207 96.094L117.791 96.6552L116.468 97.1619L115.245 97.6163L114.121 98.0216L113.095 98.3813L112.164 98.6995L111.323 98.9803L110.565 99.2276L109.885 99.4452L109.277 99.6368L108.735 99.8054L108.253 99.954L107.825 100.085L107.447 100.202L107.113 100.305L106.821 100.397L106.566 100.48L106.345 100.554L106.155 100.622L105.995 100.684L105.861 100.741L105.753 100.794L105.669 100.845L105.608 100.893L105.569 100.94L105.551 100.985L105.55 101Z" fill="url(#paint2_radial_216_356)"/>
<defs>
<radialGradient id="paint0_radial_216_356" cx="0" cy="0" r="1" gradientUnits="userSpaceOnUse" gradientTransform="translate(100.997 101) rotate(90) scale(101 100.997)">
<stop stop-color="#C6DCF9"/>
<stop offset="1" stop-color="#7AA0D1"/>
</radialGradient>
<radialGradient id="paint1_radial_216_356" cx="0" cy="0" r="1" gradientUnits="userSpaceOnUse" gradientTransform="translate(100.997 101) rotate(90) scale(67.3333 67.3314)">
<stop stop-color="#7AA0D1"/>
<stop offset="1" stop-color="#C6DCF9"/>
</radialGradient>
<radialGradient id="paint2_radial_216_356" cx="0" cy="0" r="1" gradientUnits="userSpaceOnUse" gradientTransform="translate(100.997 101) rotate(90) scale(33.6667 33.6657)">
<stop stop-color="#C6DCF9"/>
<stop offset="1" stop-color="#7AA0D1"/>
</radialGradient>
</defs>
</svg>
